<svg width="133" height="133" viewBox="0 0 133 133" fill="none" xmlns="http://www.w3.org/2000/svg">
<g filter="url(#filter0_d_101_16163)">
<rect x="16" y="12" width="101" height="101" rx="21" fill="white"/>
</g>
<path d="M56.2148 70.2716V96.0697H56.215C56.215 98.0337 57.8072 99.626 59.7713 99.626C61.7353 99.626 63.3276 98.0337 63.3276 96.0697V69.0962L56.2148 70.2716Z" fill="#0C4CA3" fill-opacity="0.4"/>
<path d="M71.9095 57.4718L67.7636 56.1631L68.9578 63.4027C69.3522 65.7942 67.8952 68.3423 64.8613 68.8426V96.0694C64.8613 98.0335 66.4536 99.6257 68.4176 99.6257C70.3817 99.6257 71.9739 98.0335 71.9739 96.0694C71.9738 93.4709 71.9095 60.0724 71.9095 57.4718Z" fill="#0C4CA3" fill-opacity="0.4"/>
<path d="M64.0954 37.2845C67.4877 37.2845 70.2377 34.5346 70.2377 31.1423C70.2377 27.75 67.4877 25 64.0954 25C60.7031 25 57.9531 27.75 57.9531 31.1423C57.9531 34.5346 60.7031 37.2845 64.0954 37.2845Z" fill="#0C4CA3" fill-opacity="0.4"/>
<path d="M65.7549 63.9326L63.9903 53.2355C63.8596 52.4423 63.1104 51.9054 62.3174 52.0362L57.5488 52.8229L57.5557 66.7604L64.5557 65.6058C65.3489 65.4749 65.8859 64.7257 65.7549 63.9326Z" fill="#0C4CA3" fill-opacity="0.4"/>
<path d="M56.1228 39.2417C52.2752 39.2417 49.1289 42.3721 49.1094 46.2199C49.0926 49.5631 49.0123 65.5558 49 67.9927C48.9917 69.6295 50.312 70.9629 51.9487 70.9712C51.9536 70.9712 51.9589 70.9712 51.964 70.9712C53.5937 70.9712 54.9192 69.654 54.9272 68.0224C54.9393 65.6017 55.02 49.5345 55.0365 46.2496C55.0366 46.2498 55.0366 46.2498 55.0366 46.2496C55.0384 45.9255 55.3021 45.6638 55.6262 45.6647C55.9504 45.6657 56.2126 45.9287 56.2126 46.2528V49.7531L61.7914 48.833C62.4689 48.7212 63.187 48.755 63.8916 48.9618C64.4033 47.3625 65.5583 46.1471 66.9803 45.5102C67.263 44.4511 68.0217 41.6105 68.6543 39.2417C63.6842 39.2417 63.3112 39.2417 56.1228 39.2417Z" fill="#0C4CA3" fill-opacity="0.4"/>
<path d="M83.3755 53.0238C82.8518 51.9159 79.5382 44.9064 78.9951 43.7574C77.9558 41.559 75.952 39.9849 73.6355 39.4458L72.103 45.184C72.7718 45.2671 73.3532 45.6916 73.6364 46.2906L75.1164 49.4211C71.0911 48.1503 71.5253 48.2875 70.1896 47.8659C68.6288 47.3737 66.964 48.2392 66.4712 49.8C65.9806 51.3542 66.8473 53.0266 68.4052 53.5183L79.8042 57.1164C82.2651 57.8932 84.4788 55.3576 83.3755 53.0238Z" fill="#0C4CA3" fill-opacity="0.4"/>
<defs>
<filter id="filter0_d_101_16163" x="0" y="0" width="133" height="133" filterUnits="userSpaceOnUse" color-interpolation-filters="sRGB">
<feFlood flood-opacity="0" result="BackgroundImageFix"/>
<feColorMatrix in="SourceAlpha" type="matrix" values="0 0 0 0 0 0 0 0 0 0 0 0 0 0 0 0 0 0 127 0" result="hardAlpha"/>
<feOffset dy="4"/>
<feGaussianBlur stdDeviation="8"/>
<feComposite in2="hardAlpha" operator="out"/>
<feColorMatrix type="matrix" values="0 0 0 0 0 0 0 0 0 0 0 0 0 0 0 0 0 0 0.05 0"/>
<feBlend mode="normal" in2="BackgroundImageFix" result="effect1_dropShadow_101_16163"/>
<feBlend mode="normal" in="SourceGraphic" in2="effect1_dropShadow_101_16163" result="shape"/>
</filter>
</defs>
</svg>
