<svg width="187" height="27" viewBox="0 0 187 27" fill="none" xmlns="http://www.w3.org/2000/svg">
<path d="M94.2249 9.08008C94.3388 6.88944 95.1243 5.09928 96.3516 3.70273V1.8418H94.7203C91.4231 1.8418 88.6317 3.10543 87.009 5.9607H86.9141V2.15598H78.457V25.3589H86.9158V15.9921C86.9158 12.0165 88.0793 8.98514 92.7731 8.98514C93.284 8.98859 93.7622 9.01794 94.2249 9.08008Z" fill="#8C8888"/>
<path d="M158.268 8.99624C158.971 6.94543 160.11 5.11902 161.591 3.65341V1.84082H159.963C156.664 1.84082 153.876 3.10446 152.245 5.95799H152.154V2.15673H143.691V25.3596H152.154V15.9929C152.154 12.0172 153.321 8.98589 158.014 8.98589L158.268 8.99624Z" fill="#8C8888"/>
<path d="M111.402 8.12656C110.097 7.44814 108.281 6.99585 106.836 6.99585C105.866 6.99585 104.19 7.3998 104.19 8.57885C104.19 10.1636 106.836 10.388 108.006 10.6193C111.949 11.3858 114.932 13.1966 114.932 17.4882C114.932 23.5923 109.213 26.1334 103.677 26.1334C100.281 26.1334 96.941 25.1822 94.0547 23.4628L97.1223 17.7143C98.8399 18.8951 101.723 20.0672 103.815 20.0672C104.885 20.0672 106.465 19.5718 106.465 18.3047C106.465 16.4956 103.815 16.4006 101.162 15.7239C98.5154 15.0455 95.869 13.7819 95.869 9.61979C95.869 3.91962 101.162 1.39062 106.379 1.39062C109.075 1.39062 111.773 1.7963 114.231 2.88213L111.402 8.12656Z" fill="#8C8888"/>
<path d="M186.958 25.3583H178.499V22.7776H178.406C176.918 25.0839 173.983 26.1231 171.199 26.1231C164.128 26.1231 159.158 20.378 159.158 13.7284C159.158 7.08569 164.04 1.38379 171.104 1.38379C173.845 1.38379 176.732 2.37813 178.498 4.41168V2.15544H186.955L186.958 25.3583ZM167.898 13.7785C167.898 16.7166 169.901 18.978 173.336 18.978C176.775 18.978 178.769 16.72 178.769 13.7785C178.769 10.9284 176.775 8.53231 173.336 8.53231C169.901 8.53403 167.898 10.9284 167.898 13.7785Z" fill="#8C8888"/>
<path d="M142.356 15.1404H124.546C124.546 18.4842 126.364 20.2916 129.849 20.2916C131.662 20.2916 132.961 19.7064 133.894 18.1666H142.031C140.683 23.6406 135.335 26.1282 129.897 26.1282C122 26.1282 116.096 21.7832 116.096 13.7819C116.096 6.04812 121.528 1.39062 129.291 1.39062C137.565 1.39062 142.359 6.36749 142.359 14.279L142.356 15.1404ZM134.498 10.388C134.078 8.17145 131.986 6.72483 129.711 6.72483C127.244 6.72483 125.207 7.98673 124.687 10.388H134.498Z" fill="#8C8888"/>
<path d="M51.5501 13.3755C51.5414 13.1752 51.5276 12.9802 51.5121 12.7816V12.7782V12.7747C51.3222 10.6221 50.611 8.6075 49.4043 6.788C48.8657 5.97665 48.2494 5.23953 47.5606 4.57836C46.5542 3.60992 45.389 2.80893 44.0753 2.17538C42.0987 1.23111 39.9149 0.754656 37.5845 0.754656C37.3566 0.754656 37.1184 0.758109 36.8784 0.76674C35.2419 0.84097 33.6589 1.1517 32.1709 1.69893C30.6707 2.24098 29.3639 2.95739 28.2954 3.81707C28.0778 3.9897 27.8413 4.20203 27.5876 4.43508L27.4046 4.61461L27.1543 4.88046H27.156H27.1577L27.0404 4.99612L26.9834 5.05827L26.6847 5.37245C26.4638 5.62104 26.2532 5.86962 26.0564 6.11302L26.0546 6.10957L26.0477 6.10267C25.6386 6.59983 25.2606 7.11427 24.9826 7.57691C24.7945 7.87383 24.6098 8.17938 24.4337 8.48493L21.9944 13.4169L21.9979 13.4204L21.8701 13.6707L21.6008 14.2162C21.0657 15.2986 20.4926 16.3775 19.8521 17.2682C18.4245 18.834 16.8104 19.6004 14.7354 19.6004C14.5904 19.6004 14.442 19.5935 14.2901 19.5849C13.0402 19.5348 11.9682 19.2396 11.017 18.6769C10.9152 18.6165 10.8168 18.5543 10.7218 18.4904C9.94501 17.9743 9.34945 17.3114 8.90407 16.4845C8.40172 15.5471 8.17903 14.5891 8.2101 13.574C8.21183 13.5464 8.21356 13.5222 8.21356 13.4998C8.28088 11.884 8.89716 10.6272 10.1384 9.54141C10.4405 9.28075 10.7564 9.05978 11.0861 8.86299C11.1327 8.83537 11.1793 8.80947 11.2259 8.7853C12.1477 8.28296 13.1973 8.03265 14.4005 8.03265L14.7751 8.043C16.6861 8.11551 18.1604 8.7128 19.336 9.87804L23.0233 3.25776C22.1412 2.66737 21.1451 2.15985 20.0472 1.74727C20.0058 1.73173 19.9626 1.71447 19.9195 1.70066C19.7883 1.65405 19.6588 1.60571 19.5241 1.56255C18.3572 1.17242 17.1332 0.932463 15.8731 0.823707C15.842 0.818528 15.8075 0.815076 15.7764 0.811623C15.583 0.799539 15.3862 0.775371 15.1929 0.76674C14.9823 0.758109 14.77 0.754656 14.5628 0.75293H14.4437C12.1253 0.761561 9.97091 1.23629 8.00122 2.17711C5.79504 3.2405 4.00662 4.78897 2.68083 6.78455C1.3585 8.78012 0.63692 10.9949 0.533343 13.372C0.524712 13.5757 0.519533 13.7777 0.519533 13.9762C0.517807 17.301 1.72965 20.2254 4.13954 22.6801C6.65473 25.2557 9.92603 26.6437 13.8533 26.8077C14.1053 26.818 14.3539 26.8249 14.6025 26.8249C16.8242 26.8249 18.8802 26.4296 20.7239 25.639C21.1848 25.4422 21.6319 25.2108 22.0894 24.9536C22.338 24.8104 22.5727 24.6584 22.8058 24.4962L22.9784 24.3805L23.2684 24.182C23.6171 23.9317 23.9434 23.6606 24.261 23.3724L24.3715 23.2671C24.558 23.0892 24.7444 22.9097 24.9205 22.725L25.5816 21.9775L25.8337 21.6616L25.9511 21.489L26.0685 21.3198C27.0507 19.6695 30.2478 13.6638 30.2478 13.6638V13.6517L30.4377 13.2857L30.5965 12.9991C31.0678 12.1412 31.4078 11.5318 31.8584 10.8914L31.8705 10.8724C32.9218 9.34807 34.7292 8.26224 36.8594 8.07926C40.4328 7.77198 43.5643 10.1197 43.8526 13.3237C44.1391 16.5277 41.4738 19.3743 37.9004 19.6833C37.1563 19.7472 36.433 19.6971 35.7512 19.5469L35.7339 19.5538C33.1117 19.0083 31.4424 17.0956 30.6189 16.2411L27.1802 22.5645C27.1802 22.5645 28.2487 23.6417 28.9807 24.1803C29.7144 24.7171 30.6621 25.2454 31.4182 25.5734C33.2532 26.3571 35.2488 26.8266 37.4533 26.8266C37.7088 26.8266 37.657 26.8266 37.9228 26.8163C41.8466 26.6523 45.3441 25.1487 47.8662 22.5731C50.2553 20.127 51.5518 17.3338 51.5639 14.028V13.9296C51.5621 13.7466 51.557 13.5619 51.5501 13.3755Z" fill="#8C8888"/>
<path d="M64.7041 26.1432C62.9208 26.1432 61.3033 25.936 59.8515 25.5217C58.3997 25.1074 57.1603 24.4532 56.1331 23.5555C55.1025 22.6578 54.3084 21.515 53.7491 20.1288C53.1898 18.7426 52.9102 17.0716 52.9102 15.1244V2.15137H61.0703V15.0208C61.0703 16.4795 61.419 17.536 62.1147 18.1954C62.8121 18.8566 63.6977 19.1863 64.7714 19.1863C65.8693 19.1863 66.7601 18.879 67.4471 18.2627C68.1308 17.6464 68.476 16.6245 68.476 15.1882V2.15137H76.6361V14.9535C76.6361 16.9697 76.3496 18.6839 75.7782 20.0943C75.2068 21.5064 74.4006 22.6596 73.3631 23.5572C72.3204 24.4549 71.0654 25.1074 69.5895 25.5235C68.1135 25.936 66.4856 26.1432 64.7041 26.1432Z" fill="#8C8888"/>
</svg>
