<svg width="183" height="60" viewBox="0 0 183 60" fill="none" xmlns="http://www.w3.org/2000/svg">
<path d="M176.963 36.4888L182.018 39.8592C180.378 42.2761 176.453 46.4225 169.668 46.4225C161.242 46.4225 154.967 39.9035 154.967 31.6107C154.967 22.7856 161.308 16.7988 168.958 16.7988C176.652 16.7988 180.422 22.9187 181.641 26.2225L182.307 27.9077L162.484 36.1119C163.991 39.0831 166.342 40.5909 169.668 40.5909C172.994 40.5909 175.3 38.9501 176.963 36.4888ZM161.419 31.145L174.657 25.646C173.925 23.8056 171.752 22.4974 169.158 22.4974C165.854 22.4974 161.264 25.4243 161.419 31.145Z" fill="#8C8888"/>
<path d="M145.41 1.69922H151.796V45.0704H145.41V1.69922Z" fill="#8C8888"/>
<path d="M135.345 17.9525H141.509V44.2945C141.509 55.226 135.056 59.7272 127.429 59.7272C120.245 59.7272 115.921 54.8934 114.302 50.9687L119.956 48.6183C120.976 51.0353 123.438 53.8956 127.429 53.8956C132.329 53.8956 135.345 50.8579 135.345 45.1815V43.0528H135.123C133.66 44.8267 130.866 46.4232 127.318 46.4232C119.912 46.4232 113.127 39.9707 113.127 31.6557C113.127 23.2963 119.912 16.7773 127.318 16.7773C130.844 16.7773 133.66 18.3517 135.123 20.0812H135.345V17.9525ZM135.788 31.6557C135.788 26.4228 132.307 22.6089 127.872 22.6089C123.393 22.6089 119.624 26.4228 119.624 31.6557C119.624 36.8221 123.393 40.5694 127.872 40.5694C132.307 40.5916 135.788 36.8221 135.788 31.6557Z" fill="#8C8888"/>
<path d="M78.069 31.5449C78.069 40.0817 71.417 46.3568 63.2571 46.3568C55.0973 46.3568 48.4453 40.0595 48.4453 31.5449C48.4453 22.9638 55.0973 16.7109 63.2571 16.7109C71.417 16.7109 78.069 22.9638 78.069 31.5449ZM71.5943 31.5449C71.5943 26.2233 67.7362 22.5647 63.2571 22.5647C58.7781 22.5647 54.9199 26.2233 54.9199 31.5449C54.9199 36.8222 58.7781 40.5252 63.2571 40.5252C67.7362 40.5252 71.5943 36.8222 71.5943 31.5449Z" fill="#8C8888"/>
<path d="M110.421 31.6107C110.421 40.1474 103.769 46.4225 95.6087 46.4225C87.4489 46.4225 80.7969 40.1474 80.7969 31.6107C80.7969 23.0296 87.4489 16.7988 95.6087 16.7988C103.769 16.7988 110.421 23.0074 110.421 31.6107ZM103.924 31.6107C103.924 26.289 100.066 22.6304 95.5865 22.6304C91.1075 22.6304 87.2493 26.289 87.2493 31.6107C87.2493 36.8879 91.1075 40.5909 95.5865 40.5909C100.088 40.5909 103.924 36.8658 103.924 31.6107Z" fill="#8C8888"/>
<path d="M24.0994 39.9261C14.8087 39.9261 7.53586 32.4315 7.53586 23.1408C7.53586 13.8502 14.8087 6.35555 24.0994 6.35555C29.1106 6.35555 32.7692 8.32899 35.4744 10.8568L39.9312 6.3999C36.1617 2.78564 31.1284 0.0361328 24.0994 0.0361328C11.3719 0.0361328 0.662109 10.4133 0.662109 23.1408C0.662109 35.8684 11.3719 46.2455 24.0994 46.2455C30.9732 46.2455 36.1617 43.9838 40.2195 39.7709C44.3881 35.6023 45.6741 29.7485 45.6741 25.0034C45.6741 23.5178 45.4967 21.9878 45.2972 20.857H24.0994V27.0212H39.1995C38.756 30.8793 37.5365 33.518 35.7404 35.314C33.5674 37.5092 30.1306 39.9261 24.0994 39.9261Z" fill="#8C8888"/>
</svg>
