<svg width="193" height="56" viewBox="0 0 193 56" fill="none" xmlns="http://www.w3.org/2000/svg">
<path d="M177.898 47.7079H183.415L192.959 23.5215H187.498L183.554 35.5675L179.397 23.5215H173.303L180.56 40.9919L177.898 47.7079ZM150.52 29.263V41.6608H144.955V23.5215H148.865L150.027 25.1061C151.541 23.8386 153.162 23.0984 155.028 23.0984C157.53 23.0984 159.431 23.8386 160.594 25.6708C162.284 24.12 164.081 23.0984 166.371 23.0984C170.668 23.0984 173.169 25.318 173.169 31.341V41.6608H167.604V31.9752C167.604 29.1926 166.476 28.3821 164.679 28.3821C163.623 28.3821 162.743 28.6636 161.756 29.2977C161.827 29.9319 161.862 30.6009 161.862 31.341V41.6608H156.297V31.9752C156.297 29.1926 155.169 28.3821 153.338 28.3821C152.316 28.3821 151.471 28.6288 150.52 29.263ZM131.11 30.8128H138.261C137.873 28.4533 136.605 27.3257 134.703 27.3257C133.082 27.3257 131.533 28.277 131.11 30.8128ZM135.091 42.0135C129.737 42.0135 125.439 39.3717 125.439 32.3974C125.439 25.881 129.596 23.0636 134.386 23.0636C140.162 23.0636 142.734 27.1137 142.734 33.4894H131.075C131.463 36.6238 133.4 37.5404 135.972 37.5404C138.459 37.5404 140.404 36.9267 141.909 35.914L141.154 40.3283C139.717 41.4382 137.993 42.0135 135.091 42.0135ZM114.368 37.3293C115.636 37.3293 116.587 37.1173 117.573 36.378V28.4881C116.693 27.959 115.813 27.7132 114.545 27.7132C111.832 27.7132 110.283 29.5445 110.283 32.6085C110.283 35.6031 111.868 37.3293 114.368 37.3293ZM118.665 40.323C117.221 41.415 115.566 42.0839 113.206 42.0839C108.239 42.0839 104.647 39.0199 104.647 32.7145C104.647 26.4448 108.768 23.0636 114.051 23.0636C115.284 23.0636 116.482 23.24 117.573 23.6622V15.9629H123.139V41.6608H119.616L118.665 40.323ZM81.0664 30.9179V17.4744H86.8427V30.8128C86.8427 35.6031 88.9911 36.5891 91.95 36.5891C95.1557 36.5891 96.8106 35.18 96.8106 30.8128V17.4744H102.623V30.9179C102.623 38.8435 99.171 42.1543 91.6686 42.1543C84.6943 42.1543 81.0664 39.3013 81.0664 30.9179Z" fill="#8C8888"/>
<path d="M66.3455 31.926C66.1112 31.7381 65.8475 31.6116 65.5607 31.5573C63.8666 33.2461 61.7993 35.0248 59.9635 36.2201C59.1164 36.7831 58.0511 37.0645 57.3457 37.0645C55.7219 37.0645 55.0165 35.5165 54.8045 33.0554C54.5221 29.75 54.3315 25.7908 54.3315 19.6716C54.3315 13.3956 52.9073 9.12913 49.1129 8.79423C48.9525 8.77997 48.7904 8.77018 48.6212 8.77018C46.292 8.77018 45.1625 9.96551 43.6804 12.9904C42.4102 15.5921 40.4338 19.3901 36.764 26.5639C33.5877 32.7535 30.0587 38.2394 27.0232 42.0374C26.1779 43.0902 25.5099 43.8135 24.8819 44.225C24.4624 44.5011 24.0598 44.6392 23.6358 44.6392C22.4378 44.6392 21.5631 43.6282 21.271 41.274C21.2015 40.7147 21.165 40.0796 21.165 39.3644C21.165 34.5118 23.0007 26.6343 26.1761 15.0292C28.5053 6.58971 27.5175 0.823242 22.4351 0.823242C22.4271 0.823242 22.4191 0.823242 22.4111 0.823242C22.4004 0.823242 22.3897 0.823242 22.3781 0.823242L22.3746 0.824133C21.2238 0.837494 20.2698 1.25435 19.3506 1.97761C18.4456 2.69017 17.5398 4.22933 16.6945 6.29845C15.7414 8.62944 9.94646 20.2532 0.723138 26.2415C0.614472 28.5182 1.90333 30.7939 4.5149 31.0406C6.89221 31.266 8.58011 30.264 10.7534 28.8041C10.5904 29.53 10.4399 30.2087 10.3027 30.8296C10.1406 31.5626 10.0026 32.195 9.89213 32.7054C9.72646 33.4652 9.62135 33.9542 9.59018 34.0896C9.28823 35.4746 9.07267 36.7902 8.93283 38.039C7.63239 49.6637 13.0203 55.3998 19.3301 55.3998C20.3847 55.3998 21.4295 55.2743 22.4672 55.0106C29.4192 53.2479 36.112 45.2733 44.034 26.9158C43.9138 28.9127 43.9013 30.7779 43.9877 32.5085C44.5097 43.0296 48.6711 46.1863 54.5507 46.1863C58.9971 46.1863 63.1612 43.866 65.2784 40.9819C66.8318 38.9422 67.4669 36.6913 67.4669 34.9331C67.4669 33.5685 67.034 32.4792 66.3455 31.926Z" fill="#8C8888"/>
</svg>
