<svg width="212" height="80" viewBox="0 0 212 80" fill="none" xmlns="http://www.w3.org/2000/svg">
<path d="M1.37891 79.3623H211.338V0.713867H1.37891" fill="#8C8888"/>
<path d="M1.37891 0.713867H211.338V79.3623H1.37891" fill="#8C8888"/>
<path d="M1.37891 0.713867H211.338V79.3623H1.37891" fill="#8C8888"/>
<path d="M0.996094 0.285156H211.339V79.362H0.996094" fill="#8C8888"/>
<path d="M1.37891 0.713867H212V79.7907H1.37891" fill="#8C8888"/>
<path d="M0.996094 0.285156H211.339V79.362H0.996094" fill="#8C8888"/>
<path d="M112.248 39.9347C110.835 39.9347 109.817 40.3972 108.785 40.8681V51.5318C109.775 51.6286 110.338 51.6286 111.279 51.6286C114.671 51.6286 115.135 50.0761 115.135 47.912V42.8176C115.135 41.2191 114.604 39.9347 112.248 39.9347ZM89.7305 39.3524C87.3776 39.3524 86.8427 40.6424 86.8427 42.2395V43.1359H92.6182V42.2395C92.6175 40.6417 92.0805 39.3524 89.7305 39.3524ZM46.1101 50.4529C46.1101 51.715 46.7063 52.3718 48.0241 52.3718C49.4381 52.3718 50.2739 51.9121 51.3061 51.4378V48.9101H48.215C46.7523 48.9108 46.1101 49.1811 46.1101 50.4529ZM134.153 39.9347C131.797 39.9347 130.981 41.2191 130.981 42.8162V48.6524C130.981 50.2558 131.797 51.5416 134.153 51.5416C136.503 51.5416 137.326 50.2544 137.326 48.6524V42.8162C137.325 41.2191 136.503 39.9347 134.153 39.9347ZM34.5618 56.9939H27.6369V40.2516H24.1738V34.481H27.6369V31.0172C27.6369 26.3101 29.5914 23.5107 35.1413 23.5107H39.7648V29.2814H36.877C34.715 29.2814 34.5715 30.088 34.5715 31.5925L34.5618 34.4803H39.7982L39.1853 40.2509H34.5618V56.9939ZM58.2358 57.0371H52.4631L52.2151 55.5786C49.5781 57.0371 47.2252 57.2739 45.6734 57.2739C41.4385 57.2739 39.186 54.4495 39.186 50.5434C39.186 45.936 41.8146 44.2901 46.5189 44.2901H51.3068V43.2941C51.3068 40.9405 51.0366 40.2509 47.4147 40.2509H41.4914L42.071 34.4803H48.5444C56.4931 34.4803 58.2358 36.9898 58.2358 43.3407V57.0371ZM77.8666 40.6751C74.2746 40.0594 73.2424 39.9243 71.515 39.9243C68.4099 39.9243 67.471 40.609 67.471 43.2411V48.2226C67.471 50.8555 68.4099 51.5423 71.515 51.5423C73.2424 51.5423 74.2746 51.4064 77.8666 50.7886V56.4151C74.719 57.1214 72.6699 57.306 70.9383 57.306C63.5001 57.306 60.5462 53.4006 60.5462 47.7574V43.7147C60.5462 38.0687 63.5001 34.155 70.9383 34.155C72.6699 34.155 74.7204 34.3424 77.8666 35.0479V40.6751ZM99.5431 47.7574H86.842V48.2226C86.842 50.8555 87.7809 51.5423 90.8846 51.5423C93.6763 51.5423 95.3786 51.4064 98.9643 50.7886V56.4151C95.5067 57.1214 93.7055 57.306 90.3107 57.306C82.8732 57.306 79.9158 53.4006 79.9158 47.7574V43.1352C79.9158 38.1997 82.1112 34.155 89.7312 34.155C97.3525 34.155 99.5438 38.1516 99.5438 43.1352L99.5431 47.7574ZM122.06 47.8632C122.06 53.317 120.5 57.2948 111.046 57.2948C107.635 57.2948 105.629 56.9939 101.86 56.4144V25.243L108.785 24.0902V34.9929C110.28 34.4371 112.218 34.1557 113.981 34.1557C120.907 34.1557 122.061 37.2573 122.061 42.2381V47.8632H122.06ZM144.258 47.9823C144.258 52.6866 142.313 57.2503 134.176 57.2503C126.035 57.2503 124.054 52.6866 124.054 47.9823V43.4403C124.054 38.7346 126.035 34.1703 134.176 34.1703C142.313 34.1703 144.258 38.7346 144.258 43.4403V47.9823ZM166.438 47.9823C166.438 52.6866 164.491 57.2503 156.357 57.2503C148.215 57.2503 146.233 52.6866 146.233 47.9823V43.4403C146.233 38.7346 148.215 34.1703 156.357 34.1703C164.491 34.1703 166.438 38.7346 166.438 43.4403V47.9823ZM189.204 56.9939H181.696L175.349 46.4131V56.9939H168.424V25.243L175.349 24.0902V44.5304L181.696 34.481H189.204L182.273 45.447L189.204 56.9939ZM156.333 39.9347C153.981 39.9347 153.165 41.2191 153.165 42.8162V48.6524C153.165 50.2558 153.981 51.5416 156.333 51.5416C158.683 51.5416 159.514 50.2544 159.514 48.6524V42.8162C159.514 41.2191 158.683 39.9347 156.333 39.9347ZM193.158 53.0461C194.324 53.0461 195.253 53.9954 195.253 55.1809C195.253 56.3852 194.324 57.3248 193.148 57.3248C191.981 57.3248 191.033 56.3845 191.033 55.1809C191.033 53.9954 191.981 53.0461 193.148 53.0461H193.158ZM193.147 53.3783C192.208 53.3783 191.439 54.1849 191.439 55.1823C191.439 56.1971 192.208 56.9953 193.158 56.9953C194.106 57.0051 194.865 56.1971 194.865 55.1913C194.865 54.1863 194.106 53.3783 193.158 53.3783H193.147ZM192.748 56.4256H192.37V54.0421C192.568 54.0135 192.758 53.9864 193.042 53.9864C193.404 53.9864 193.64 54.0609 193.783 54.1661C193.925 54.2712 194 54.4321 194 54.6599C194 54.9726 193.793 55.1628 193.537 55.2394V55.2582C193.746 55.2965 193.888 55.4839 193.934 55.8349C193.991 56.2062 194.049 56.349 194.087 56.4256H193.688C193.631 56.3503 193.573 56.1302 193.528 55.8189C193.47 55.5138 193.319 55.3996 193.014 55.3996H192.749V56.4256H192.748ZM192.748 55.1057H193.024C193.335 55.1057 193.602 54.9914 193.602 54.6975C193.602 54.4872 193.45 54.2789 193.024 54.2789C192.9 54.2789 192.813 54.2893 192.748 54.2977V55.1057Z" fill="white"/>
</svg>
