<svg width="183" height="41" viewBox="0 0 183 41" fill="none" xmlns="http://www.w3.org/2000/svg">
<path d="M34.957 32.5999L32.8976 32.5095H14.3855L39.0606 8.13115L38.9615 6.09648C38.9228 4.51961 38.2715 3.01791 37.1426 1.90257C36.0136 0.787225 34.4937 0.143761 32.8976 0.105517L30.8382 0.00755526H0L0.106786 2.04222C0.366122 5.3429 2.79931 7.84479 6.16305 8.03318L8.22249 8.13115H26.7422L2.05181 32.5095L2.15859 34.5366C2.27301 37.7996 4.91977 40.4145 8.22249 40.5351L10.2819 40.6331H41.1277L41.0209 38.5984C40.7463 35.26 38.3513 32.8184 34.957 32.6074V32.5999ZM59.6474 0.00755526H59.6169C54.166 0.0105526 48.9395 2.15234 45.0868 5.96191C41.2341 9.77148 39.0706 14.9369 39.0721 20.3222C39.0736 25.7075 41.24 30.8717 45.0949 34.6792C48.9498 38.4866 54.1775 40.6255 59.6283 40.6255C65.0792 40.6255 70.3069 38.4866 74.1617 34.6792C78.0166 30.8717 80.183 25.7075 80.1845 20.3222C80.1861 14.9369 78.0226 9.77148 74.1698 5.96191C70.3171 2.15234 65.0906 0.0105526 59.6398 0.00755526H59.6474ZM68.3504 28.9375C67.2156 30.1159 65.8537 31.0581 64.3447 31.7086C62.8358 32.3591 61.2104 32.7047 59.5641 32.7252C57.9179 32.7456 56.2842 32.4404 54.7592 31.8276C53.2342 31.2148 51.8487 30.3067 50.6843 29.1568C49.52 28.0069 48.6002 26.6385 47.9792 25.1321C47.3583 23.6257 47.0487 22.0118 47.0686 20.3853C47.0886 18.7589 47.4377 17.1529 48.0955 15.6618C48.7532 14.1707 49.7063 12.8248 50.8986 11.7031C53.2308 9.50909 56.3386 8.3026 59.5588 8.34118C62.7789 8.37976 65.8562 9.66037 68.1339 11.9096C70.4115 14.1589 71.709 17.1986 71.7495 20.38C71.7899 23.5614 70.5701 26.6324 68.3504 28.9375ZM166.532 0.0150869C164.202 0.0168179 161.899 0.507453 159.776 1.45451C157.652 2.40157 155.756 3.78345 154.214 5.50869C152.672 3.77596 150.773 2.38827 148.645 1.43831C146.517 0.488358 144.208 -0.00199212 141.872 1.6408e-05C138.587 -0.00460446 135.377 0.96688 132.658 2.78826C131.056 1.03242 127.471 1.6408e-05 125.427 1.6408e-05V40.6331L127.487 40.5351C130.919 40.309 133.413 37.9051 133.551 34.5366L133.65 32.5019V18.2819L133.757 16.2472C133.833 14.725 134.062 13.3685 134.763 12.1779C135.304 11.2546 136.024 10.4455 136.881 9.79702C137.739 9.14849 138.717 8.67315 139.76 8.39814C140.804 8.12314 141.891 8.05385 142.962 8.19423C144.032 8.33461 145.064 8.68191 145.999 9.21631C147.239 9.92663 148.27 10.945 148.989 12.1703C149.698 13.3761 149.904 14.725 149.996 16.2397L150.102 18.2819V32.5019L150.202 34.5291C150.408 37.8448 152.871 40.3166 156.265 40.5276L158.325 40.6255V18.2819L158.416 16.2472C158.493 14.74 158.722 13.3535 159.439 12.1553C161.719 8.28186 166.753 6.95556 170.674 9.21631C171.915 9.92871 172.946 10.9497 173.664 12.1779C174.366 13.3836 174.579 14.7627 174.663 16.2472L174.77 18.2819V32.5019L174.869 34.5291C175.083 37.8674 177.539 40.3316 180.941 40.5276L183 40.6255V16.2472C182.998 14.112 182.57 11.998 181.741 10.0262C180.912 8.05435 179.698 6.26322 178.168 4.75513C176.638 3.24704 174.822 2.05154 172.824 1.23693C170.826 0.42233 168.686 0.00458461 166.525 0.00755526L166.532 0.0150869ZM88.2736 5.9533C86.2839 7.82057 84.6926 10.0624 83.5935 12.5467C82.4945 15.031 81.9098 17.7075 81.874 20.4186C81.8382 23.1296 82.3521 25.8202 83.3852 28.332C84.4183 30.8438 85.9499 33.1259 87.8896 35.0438C89.8293 36.9617 92.1379 38.4766 94.6795 39.4993C97.221 40.5219 99.944 41.0317 102.688 40.9985C105.432 40.9653 108.142 40.3897 110.657 39.3058C113.173 38.2219 115.443 36.6516 117.334 34.6873C121.032 30.848 123.064 25.7335 122.998 20.4346C122.933 15.1356 120.774 10.0718 116.983 6.32318C113.191 2.57454 108.068 0.437787 102.704 0.368687C97.3409 0.299587 92.1625 2.3036 88.2736 5.9533ZM111.53 28.9375C110.39 30.0942 109.028 31.0155 107.524 31.6481C106.021 32.2807 104.405 32.6119 102.77 32.6225C101.136 32.6331 99.516 32.3229 98.004 31.7099C96.492 31.0969 95.1183 30.1933 93.9627 29.0515C92.807 27.9098 91.8924 26.5526 91.272 25.0588C90.6515 23.565 90.3375 21.9644 90.3483 20.3497C90.359 18.7351 90.6942 17.1386 91.3345 15.653C91.9748 14.1674 92.9074 12.8222 94.0781 11.6956C96.4027 9.45857 99.5255 8.2161 102.77 8.23716C106.015 8.25822 109.121 9.54113 111.416 11.8081C113.711 14.0751 115.009 17.1438 115.03 20.3497C115.052 23.5557 113.794 26.6409 111.53 28.9375Z" fill="#8C8888"/>
</svg>
