<svg width="77" height="75" viewBox="0 0 77 75" fill="none" xmlns="http://www.w3.org/2000/svg">
<path d="M62.6089 43.0587C57.8294 43.0587 51.848 43.8936 49.8914 44.1873C41.7923 35.7173 39.4881 30.9027 38.9699 29.6191C39.6723 27.8118 42.1162 20.9459 42.4635 12.1277C42.6348 7.71266 41.7035 4.41369 39.6949 2.32248C37.6897 0.234719 35.2628 0.0722656 34.5668 0.0722656C32.1264 0.0722656 28.0326 1.3082 28.0326 9.58417C28.0326 16.7649 31.3756 24.3845 32.2997 26.3533C27.431 40.5504 22.2039 50.269 21.094 52.268C1.52981 59.6448 0 66.7773 0 68.7988C0 72.4314 2.58331 74.6001 6.91012 74.6001C17.4228 74.6001 27.0163 56.9243 28.6026 53.8551C36.069 50.8758 46.0626 49.0305 48.603 48.5902C55.89 55.5418 64.3178 57.3967 67.8174 57.3967C70.4506 57.3967 76.6174 57.3967 76.6174 51.0471C76.6179 45.1506 69.0714 43.0587 62.6089 43.0587ZM62.1022 47.2272C67.7806 47.2272 69.2812 49.1078 69.2812 50.1022C69.2812 50.7262 69.0447 52.762 66.001 52.762C63.2717 52.762 58.5595 51.1823 53.9231 47.7547C55.8567 47.5001 58.7177 47.2272 62.1022 47.2272ZM34.2684 4.11292C34.7861 4.11292 35.127 4.27957 35.4081 4.66981C37.0413 6.93936 35.7244 14.355 34.1216 20.158C32.5744 15.1822 31.4133 7.54721 33.047 4.86119C33.3663 4.33681 33.7313 4.11292 34.2684 4.11292ZM31.5107 48.5308C33.5666 44.3715 35.8708 38.3101 37.1258 34.8815C39.6375 39.0918 43.0155 43.0004 44.9693 45.1196C38.8861 46.4041 34.2835 47.687 31.5107 48.5308ZM4.08379 69.3538C3.94836 69.1931 3.92831 68.8538 4.03037 68.4467C4.24436 67.5935 5.88012 63.3643 17.7105 58.0645C16.0166 60.7367 13.3683 64.5551 10.4591 67.4073C8.4112 69.3271 6.81659 70.3003 5.7194 70.3003C5.32689 70.3003 4.78607 70.1929 4.08379 69.3538Z" fill="#8C8888"/>
</svg>
