<svg width="41" height="41" viewBox="0 0 41 41" fill="none" xmlns="http://www.w3.org/2000/svg">
<path fill-rule="evenodd" clip-rule="evenodd" d="M20.5 41C9.17816 41 0 31.8218 0 20.5C0 9.17816 9.17816 0 20.5 0C31.8218 0 41 9.17816 41 20.5C41 31.8218 31.8218 41 20.5 41ZM20.5029 37.2735C29.7662 37.2735 37.2756 29.7641 37.2756 20.5007C37.2756 11.2374 29.7662 3.728 20.5029 3.728C11.2396 3.728 3.73019 11.2374 3.73019 20.5007C3.73019 29.7641 11.2396 37.2735 20.5029 37.2735ZM26.6341 13.5907L16.7701 23.4547L12.497 19.1816L9.86141 21.8172L16.7701 28.7259L29.2697 16.2263L26.6341 13.5907Z" fill="#34BCAD"/>
</svg>
