<svg width="41" height="41" viewBox="0 0 41 41" fill="none" xmlns="http://www.w3.org/2000/svg">
<path d="M20.5 41C31.8218 41 41 31.8218 41 20.5C41 9.17816 31.8218 0 20.5 0C9.17816 0 0 9.17816 0 20.5C0 31.8218 9.17816 41 20.5 41Z" fill="#523852"/>
<path d="M40.3417 15.3314L34.0674 10.4805V12.6905H31.0244V21.8994H10.2041V24.1416H6.60059L6.56055 29.2L23.0413 40.8007L23.0151 40.8407C33.1494 39.5998 40.9998 30.9695 40.9998 20.4999C40.9998 18.7144 40.7706 16.9827 40.3417 15.3314Z" fill="#220B22"/>
<path d="M34.7496 28.4191C34.7496 29.0244 34.3067 29.5195 33.7668 29.5195H7.24591C6.70666 29.5195 6.26367 29.0243 6.26367 28.4191V11.5457C6.26367 10.9404 6.70658 10.4453 7.24591 10.4453H33.7668C34.3067 10.4453 34.7496 10.9405 34.7496 11.5457V28.4191Z" fill="#26A9E0"/>
<path d="M21.5048 22.4399C21.0174 22.825 20.2166 22.8296 19.7249 22.4509L6.26367 12.0616V14.2625L19.725 24.651C20.2167 25.0304 21.0175 25.0258 21.5049 24.6407L34.7496 14.1836V11.9824L21.5048 22.4399Z" fill="#354C59"/>
<path d="M33.7668 10.4453H7.24591C6.70666 10.4453 6.26367 10.9405 6.26367 11.5457V12.0606L19.725 22.4498C20.2167 22.8286 21.0175 22.8239 21.5049 22.4389L34.7496 11.9815V11.5457C34.7496 10.9404 34.3067 10.4453 33.7668 10.4453Z" fill="#EBEBEB"/>
</svg>
