<svg width="19" height="37" viewBox="0 0 19 37" fill="none" xmlns="http://www.w3.org/2000/svg">
<g id="XMLID_834_">
<path id="XMLID_835_" d="M0.593729 19.6056H4.62883V36.2175C4.62883 36.5455 4.89458 36.8112 5.22256 36.8112H12.0642C12.3922 36.8112 12.6579 36.5455 12.6579 36.2175V19.6839H17.2966C17.5982 19.6839 17.852 19.4576 17.8864 19.158L18.591 13.0423C18.6103 12.8741 18.557 12.7056 18.4444 12.5793C18.3317 12.453 18.1705 12.3807 18.0013 12.3807H12.6582V8.54709C12.6582 7.39145 13.2804 6.80544 14.5078 6.80544C14.6827 6.80544 18.0013 6.80544 18.0013 6.80544C18.3292 6.80544 18.595 6.53957 18.595 6.21171V0.598123C18.595 0.270147 18.3292 0.0043936 18.0013 0.0043936H13.1867C13.1528 0.00273115 13.0774 0 12.9662 0C12.1308 0 9.22714 0.163988 6.93345 2.2741C4.39205 4.61244 4.74532 7.41223 4.82975 7.89767V12.3806H0.593729C0.265753 12.3806 0 12.6463 0 12.9743V19.0118C0 19.3398 0.265753 19.6056 0.593729 19.6056Z" fill="#5577CD"/>
</g>
</svg>
