<svg width="18" height="34" viewBox="0 0 18 34" fill="none" xmlns="http://www.w3.org/2000/svg">
<path d="M0.960496 18.1084H4.68744V33.4516C4.68744 33.7545 4.9329 34 5.23583 34H11.555C11.8579 34 12.1034 33.7545 12.1034 33.4516V18.1807H16.3878C16.6664 18.1807 16.9008 17.9716 16.9326 17.6949L17.5833 12.0463C17.6012 11.8909 17.5519 11.7353 17.448 11.6187C17.3439 11.502 17.195 11.4352 17.0387 11.4352H12.1036V7.89436C12.1036 6.82698 12.6783 6.28572 13.8119 6.28572C13.9735 6.28572 17.0387 6.28572 17.0387 6.28572C17.3416 6.28572 17.587 6.04015 17.587 5.73734V0.552445C17.587 0.249516 17.3416 0.00405806 17.0387 0.00405806H12.5918C12.5604 0.00252258 12.4908 0 12.3881 0C11.6165 0 8.93459 0.151464 6.81606 2.10043C4.46875 4.2602 4.79504 6.84617 4.87302 7.29454V11.4351H0.960496C0.657567 11.4351 0.412109 11.6805 0.412109 11.9835V17.5599C0.412109 17.8628 0.657567 18.1084 0.960496 18.1084Z" fill="#91E7DE"/>
</svg>
