<svg width="33" height="33" viewBox="0 0 33 33" fill="none" xmlns="http://www.w3.org/2000/svg">
<g id="Group 769">
<path id="Vector" d="M7.24113 13.4263C8.52344 9.54064 12.175 6.75001 16.5001 6.75001C18.8251 6.75001 20.9251 7.57501 22.5751 8.92502L27.3751 4.12501C24.4501 1.575 20.7001 0 16.5001 0C9.99645 0 4.397 3.71017 1.70508 9.1438L7.24113 13.4263Z" fill="#EA4335"/>
<path id="Vector_2" d="M22.0557 24.7672C20.5572 25.7348 18.6531 26.2498 16.4997 26.2498C12.1911 26.2498 8.55096 23.4805 7.25552 19.6182L1.70117 23.8355C4.38975 29.2786 9.98905 32.9999 16.4997 32.9999C20.5323 32.9999 24.3858 31.5663 27.2717 28.8743L22.0557 24.7672Z" fill="#34A853"/>
<path id="Vector_3" d="M27.272 28.8749C30.2901 26.0596 32.25 21.868 32.25 16.5005C32.25 15.5255 32.1 14.4755 31.875 13.5005H16.5V19.8755H25.35C24.9133 22.0192 23.7412 23.6797 22.056 24.7678L27.272 28.8749Z" fill="#4A90E2"/>
<path id="Vector_4" d="M7.25586 19.6181C6.92771 18.6397 6.75001 17.5912 6.75001 16.4998C6.75001 15.4249 6.92236 14.3916 7.24104 13.426L1.70499 9.14355C0.600308 11.3579 0 13.8534 0 16.4998C0 19.1392 0.611575 21.6288 1.70151 23.8354L7.25586 19.6181Z" fill="#FBBC05"/>
</g>
</svg>
