<svg width="26" height="17" viewBox="0 0 26 17" fill="none" xmlns="http://www.w3.org/2000/svg">
<path d="M20.8966 8.21784V1.6709C19.0916 1.6709 17.623 3.13937 17.623 4.9444C17.623 6.74942 19.0916 8.21784 20.8966 8.21784Z" fill="#9BC9FF"/>
<path d="M24.17 4.9444C24.17 3.13937 22.7016 1.6709 20.8965 1.6709V8.21784C22.7016 8.21784 24.17 6.74937 24.17 4.9444Z" fill="#57A4FF"/>
<path d="M25.9995 14.0872C25.9995 11.273 23.71 8.9834 20.8957 8.9834C19.435 8.9834 18.078 9.59948 17.125 10.6474C18.457 11.7248 19.3612 13.3111 19.5385 15.108H25.9995V14.0872Z" fill="#9BC9FF"/>
<path d="M8.87449 10.6474C7.92146 9.59953 6.5645 8.9834 5.10383 8.9834C2.28958 8.9834 0 11.273 0 14.0872V15.108H6.46094C6.6383 13.3111 7.5425 11.7248 8.87449 10.6474Z" fill="#9BC9FF"/>
<path d="M5.10357 8.21784V1.6709C3.29855 1.6709 1.83008 3.13937 1.83008 4.9444C1.83008 6.74942 3.29855 8.21784 5.10357 8.21784Z" fill="#9BC9FF"/>
<path d="M8.37701 4.9444C8.37701 3.13937 6.90854 1.6709 5.10352 1.6709V8.21784C6.90854 8.21784 8.37701 6.74937 8.37701 4.9444Z" fill="#57A4FF"/>
<path d="M17.1255 10.6472C15.9969 9.73422 14.5613 9.18652 13 9.18652V16.779H19.5712V15.7582C19.5712 15.5388 19.5602 15.3218 19.539 15.1079C19.3617 13.3109 18.4575 11.7246 17.1255 10.6472Z" fill="#003F8A"/>
<path d="M17.0831 4.08307C17.0831 1.83177 15.2513 0 13 0V8.16613C15.2513 8.16613 17.0831 6.33488 17.0831 4.08307Z" fill="#003F8A"/>
<path d="M8.87539 10.6472C7.5434 11.7247 6.6392 13.311 6.46184 15.1079C6.44071 15.3219 6.42969 15.5388 6.42969 15.7582V16.779H13.0009V9.18652C11.4397 9.18657 10.0041 9.73427 8.87539 10.6472Z" fill="#005ECE"/>
<path d="M12.9991 8.16613V0C10.7478 0 8.91602 1.83177 8.91602 4.08307C8.91602 6.33488 10.7478 8.16613 12.9991 8.16613Z" fill="#005ECE"/>
</svg>
