<svg width="34" height="34" viewBox="0 0 34 34" fill="none" xmlns="http://www.w3.org/2000/svg">
<path d="M7.91496 10.9378H1.0894C0.786474 10.9378 0.541016 11.1834 0.541016 11.4862V33.4138C0.541016 33.7167 0.786474 33.9622 1.0894 33.9622H7.91496C8.21789 33.9622 8.46335 33.7167 8.46335 33.4138V11.4862C8.46335 11.1834 8.21789 10.9378 7.91496 10.9378Z" fill="#91E7DE"/>
<path d="M4.50401 0.0371094C2.02048 0.0371094 0 2.05539 0 4.53619C0 7.01808 2.02048 9.03713 4.50401 9.03713C6.98557 9.03713 9.00441 7.01797 9.00441 4.53619C9.00452 2.05539 6.98557 0.0371094 4.50401 0.0371094Z" fill="#91E7DE"/>
<path d="M25.275 10.3929C22.5336 10.3929 20.5071 11.5713 19.278 12.9104V11.4862C19.278 11.1834 19.0325 10.9378 18.7296 10.9378H12.1929C11.89 10.9378 11.6445 11.1834 11.6445 11.4862V33.4138C11.6445 33.7167 11.89 33.9622 12.1929 33.9622H19.0036C19.3065 33.9622 19.5519 33.7167 19.5519 33.4138V22.5647C19.5519 18.9089 20.545 17.4846 23.0934 17.4846C25.8689 17.4846 26.0895 19.7679 26.0895 22.7528V33.4139C26.0895 33.7169 26.3349 33.9623 26.6379 33.9623H33.451C33.754 33.9623 33.9994 33.7169 33.9994 33.4139V21.3863C33.9994 15.9501 32.9629 10.3929 25.275 10.3929Z" fill="#91E7DE"/>
</svg>
