<svg width="31" height="41" viewBox="0 0 31 41" fill="none" xmlns="http://www.w3.org/2000/svg">
<path d="M30.4965 26.8764C30.4965 22.9943 27.7942 19.7435 24.1679 18.9023L13.5742 30.1214L15.2478 40.1627L16.5029 40.9995H23.8293L25.0843 40.1628L26.3395 40.9995H30.4966V26.8764H30.4965Z" fill="#003DA8"/>
<path d="M6.32857 18.9023C2.70231 19.7435 0 22.9943 0 26.8764V40.9994H4.15701L5.41216 40.1627L6.6673 40.9994H13.9936L15.2487 40.1627V28.349L6.32857 18.9023Z" fill="#2F91ED"/>
<path d="M22.3109 18.6914H15.2478L13.5742 23.0015L15.2478 30.569L24.1678 18.9031C23.5712 18.7646 22.9496 18.6914 22.3109 18.6914Z" fill="#FF8E00"/>
<path d="M8.18506 18.6895C7.54635 18.6895 6.92471 18.7626 6.32812 18.9011L15.2482 30.567V18.6895H8.18506Z" fill="#FFBA00"/>
<path d="M16.504 19.3252H15.2488L14.4121 30.5667L15.2488 40.9979H16.504V19.3252Z" fill="#FFBA00"/>
<path d="M15.2493 19.3271H13.9941V40.9996H15.2493V19.3271Z" fill="#FDE09C"/>
<path d="M6.66849 26.6133H4.1582V40.9999H6.66849V26.6133Z" fill="#003DA8"/>
<path d="M26.3404 26.6133H23.8301V40.9999H26.3404V26.6133Z" fill="#2F91ED"/>
<path d="M5.4849 1.25488H2.97461V11.0025H5.4849V1.25488Z" fill="#003DA8"/>
<path d="M13.5742 6.15039L15.2478 20.4576C19.4816 20.4576 22.9138 17.0254 22.9138 12.7916V7.82394L13.5742 6.15039Z" fill="#FF6E7A"/>
<path d="M7.58203 7.82394V12.7916C7.58203 17.0254 11.0143 20.4576 15.2481 20.4576V6.15039L7.58203 7.82394Z" fill="#FFABB2"/>
<path d="M22.9138 1.25488H15.2478L13.5742 4.53953L15.2478 7.82425H22.9138V1.25488Z" fill="#003DA8"/>
<path d="M15.2477 1.25391H7.58203V7.82343H15.2477V1.25391Z" fill="#2F91ED"/>
<path d="M28.9939 0H15.2478L13.5742 1.25514L15.2478 2.51029H28.9939V0Z" fill="#2F91ED"/>
<path d="M15.2485 0H1.50195V2.51029H15.2485V0Z" fill="#63C1FF"/>
</svg>
