<svg width="34" height="28" viewBox="0 0 34 28" fill="none" xmlns="http://www.w3.org/2000/svg">
<path d="M33.2295 3.29459C32.6954 3.5315 32.1463 3.73144 31.5851 3.89376C32.2495 3.14247 32.756 2.25847 33.0651 1.29111C33.1344 1.07428 33.0626 0.836941 32.8844 0.695128C32.7064 0.553205 32.4591 0.536206 32.2631 0.652354C31.0714 1.35912 29.7858 1.86703 28.4377 2.16404C27.0798 0.837161 25.2355 0.0820312 23.3288 0.0820312C19.3042 0.0820312 16.0299 3.35623 16.0299 7.38073C16.0299 7.6977 16.05 8.01291 16.0897 8.32374C11.0955 7.88525 6.45257 5.43056 3.26424 1.51957C3.15062 1.38017 2.97557 1.30504 2.79636 1.31941C2.61704 1.33345 2.45592 1.43457 2.36533 1.58999C1.71867 2.69959 1.3768 3.96867 1.3768 5.2599C1.3768 7.01858 2.00471 8.68721 3.11387 9.99106C2.77662 9.87425 2.44934 9.72827 2.13698 9.55487C1.96928 9.46153 1.76462 9.46296 1.59802 9.55849C1.43131 9.65402 1.32679 9.82972 1.3224 10.0218C1.32164 10.0541 1.32164 10.0865 1.32164 10.1193C1.32164 12.7444 2.7345 15.1078 4.8946 16.396C4.70902 16.3775 4.52356 16.3506 4.3393 16.3154C4.14934 16.2791 3.954 16.3457 3.8259 16.4905C3.69758 16.6353 3.65513 16.8371 3.71425 17.0214C4.5138 19.5176 6.57233 21.3537 9.06091 21.9135C6.99689 23.2063 4.63653 23.8835 2.15869 23.8835C1.64167 23.8835 1.12169 23.8531 0.612791 23.7929C0.359985 23.7628 0.118256 23.9121 0.0321587 24.1525C-0.053938 24.393 0.0373136 24.6612 0.252391 24.799C3.43556 26.84 7.11622 27.9188 10.8963 27.9188C18.3273 27.9188 22.976 24.4146 25.5671 21.4749C28.7982 17.8094 30.6514 12.9576 30.6514 8.16372C30.6514 7.96345 30.6483 7.76121 30.6421 7.55962C31.9169 6.59917 33.0145 5.43681 33.9076 4.10083C34.0432 3.89793 34.0285 3.62977 33.8714 3.44299C33.7144 3.2561 33.4528 3.19566 33.2295 3.29459Z" fill="#91E7DE"/>
</svg>
