<svg width="56" height="56" viewBox="0 0 56 56" fill="none" xmlns="http://www.w3.org/2000/svg">
<g filter="url(#filter0_d_101_15482)">
<path d="M28 6.00001C26.782 5.9984 25.5836 6.3058 24.5167 6.89343C23.4499 7.48106 22.5496 8.32972 21.9 9.36001C21.3108 9.21784 20.706 9.15064 20.1 9.16001C18.2763 9.22774 16.5464 9.98549 15.26 11.28C14.4157 12.1408 13.8011 13.1999 13.4726 14.3601C13.1442 15.5203 13.1123 16.7443 13.38 17.92C12.3489 18.5654 11.4981 19.4615 10.907 20.5247C10.3159 21.5879 10.0039 22.7836 10 24C10.0005 25.2198 10.311 26.4195 10.9022 27.4865C11.4934 28.5535 12.346 29.4528 13.38 30.1C13.1148 31.2773 13.1499 32.5024 13.4819 33.6627C13.8139 34.8229 14.4322 35.8811 15.28 36.74C16.1429 37.6011 17.2103 38.2289 18.3822 38.5647C19.5541 38.9005 20.792 38.9333 21.98 38.66C22.6247 39.6752 23.5134 40.5127 24.5649 41.0961C25.6165 41.6796 26.7975 41.9903 28 42C29.2127 42.0004 30.4059 41.6944 31.4688 41.1105C32.5317 40.5266 33.4298 39.6837 34.08 38.66C35.264 38.9253 36.4959 38.887 37.6612 38.5488C38.8265 38.2106 39.8874 37.5834 40.7454 36.7254C41.6034 35.8674 42.2306 34.8065 42.5688 33.6412C42.907 32.4759 42.9453 31.244 42.68 30.06C43.6971 29.4093 44.5343 28.5133 45.1145 27.4543C45.6946 26.3953 45.9991 25.2075 46 24C46.0004 22.7873 45.6944 21.5941 45.1105 20.5312C44.5266 19.4683 43.6837 18.5702 42.66 17.92V17.92C42.9253 16.736 42.887 15.5041 42.5488 14.3388C42.2106 13.1735 41.5834 12.1126 40.7254 11.2546C39.8674 10.3966 38.8065 9.76941 37.6412 9.43118C36.4759 9.09296 35.244 9.05471 34.06 9.32001C33.4093 8.30286 32.5133 7.4657 31.4543 6.88554C30.3953 6.30538 29.2075 6.00086 28 6.00001V6.00001Z" fill="#0C4CA3"/>
<path d="M34 20L26 28Z" fill="#0C4CA3"/>
<path d="M34 20L26 28" stroke="white" stroke-width="2" stroke-linecap="round" stroke-linejoin="round"/>
<path d="M22 24L26 28Z" fill="#0C4CA3"/>
<path d="M22 24L26 28" stroke="white" stroke-width="2" stroke-linecap="round" stroke-linejoin="round"/>
</g>
<defs>
<filter id="filter0_d_101_15482" x="0" y="0" width="56" height="56" filterUnits="userSpaceOnUse" color-interpolation-filters="sRGB">
<feFlood flood-opacity="0" result="BackgroundImageFix"/>
<feColorMatrix in="SourceAlpha" type="matrix" values="0 0 0 0 0 0 0 0 0 0 0 0 0 0 0 0 0 0 127 0" result="hardAlpha"/>
<feOffset dy="4"/>
<feGaussianBlur stdDeviation="5"/>
<feComposite in2="hardAlpha" operator="out"/>
<feColorMatrix type="matrix" values="0 0 0 0 0 0 0 0 0 0 0 0 0 0 0 0 0 0 0.25 0"/>
<feBlend mode="normal" in2="BackgroundImageFix" result="effect1_dropShadow_101_15482"/>
<feBlend mode="normal" in="SourceGraphic" in2="effect1_dropShadow_101_15482" result="shape"/>
</filter>
</defs>
</svg>
