<svg width="30" height="34" viewBox="0 0 30 34" fill="none" xmlns="http://www.w3.org/2000/svg">
<path d="M14.6015 12.844C15.4755 12.844 16.1395 12.522 16.6135 11.876C16.9755 11.402 17.1435 10.642 17.1435 9.636V6.316C17.1435 5.31 16.9755 4.57 16.6135 4.096C16.1375 3.454 15.4735 3.13 14.6015 3.13C13.7455 3.13 13.0815 3.452 12.6115 4.096C12.2495 4.572 12.0795 5.312 12.0795 6.318V9.638C12.0795 10.644 12.2495 11.384 12.6115 11.878C13.0815 12.522 13.7455 12.844 14.6015 12.844ZM13.7855 5.976C13.7855 5.104 14.0515 4.668 14.6015 4.668C15.1715 4.668 15.4175 5.104 15.4175 5.976V9.96C15.4175 10.834 15.1715 11.288 14.6015 11.288C14.0515 11.288 13.7855 10.832 13.7855 9.96V5.976ZM18.6995 12.142C18.6035 11.856 18.5495 11.402 18.5495 10.72V3.244H20.2755V10.206C20.2755 10.606 20.2755 10.832 20.2955 10.872C20.3335 11.138 20.4655 11.288 20.6935 11.288C21.0335 11.288 21.3935 11.022 21.7735 10.472V3.244H23.4995V12.712H21.7735V11.668C21.0915 12.464 20.4475 12.844 19.8175 12.844C19.2675 12.844 18.8695 12.618 18.6995 12.142ZM25.2655 23.622V24.494H23.5575V23.622C23.5575 22.768 23.8435 22.33 24.4115 22.33C24.9795 22.332 25.2655 22.768 25.2655 23.622ZM6.70745 3.548C6.29145 2.372 5.87545 1.176 5.47345 0H7.48745L8.83345 4.99L10.1235 0H12.0595L9.76345 7.57V12.712H7.86745V7.57C7.69545 6.64 7.31545 5.312 6.70745 3.548ZM28.5655 17.57C28.2235 16.07 26.9895 14.97 25.5295 14.8C22.0375 14.42 18.5075 14.42 14.9975 14.42C11.4875 14.42 7.95745 14.42 4.48545 14.8C3.00945 14.97 1.79345 16.07 1.43345 17.57C0.959453 19.694 0.939453 22.01 0.939453 24.21C0.939453 26.392 0.939453 28.724 1.43345 30.85C1.77545 32.35 3.00945 33.45 4.46945 33.602C7.95945 34 11.4895 34 14.9995 34C18.5095 34 22.0395 34 25.5315 33.602C26.9895 33.45 28.2055 32.35 28.5675 30.85C29.0415 28.726 29.0615 26.392 29.0615 24.21C29.0595 22.01 29.0595 19.694 28.5655 17.57ZM8.96545 19.486H6.93745V30.282H5.03945V19.486H3.04545V17.702H8.96545V19.486ZM14.0895 30.282H12.3995V29.258C11.7155 30.036 11.0715 30.416 10.4635 30.416C9.91545 30.416 9.51545 30.188 9.36345 29.714C9.26745 29.43 9.21145 28.992 9.21145 28.33V20.912H10.9015V27.818C10.9015 28.218 10.9015 28.426 10.9195 28.484C10.9595 28.748 11.0915 28.882 11.3175 28.882C11.6615 28.882 12.0215 28.618 12.3995 28.086V20.914H14.0895V30.282ZM20.5415 27.474C20.5415 28.348 20.5015 28.972 20.3695 29.37C20.1615 30.054 19.6855 30.414 19.0215 30.414C18.4155 30.414 17.8255 30.072 17.2555 29.37V30.282H15.5695V17.702H17.2555V21.82C17.8055 21.136 18.3955 20.796 19.0215 20.796C19.6855 20.796 20.1615 21.156 20.3695 21.858C20.5015 22.238 20.5415 22.862 20.5415 23.736V27.474ZM26.9535 25.918H23.5575V27.568C23.5575 28.442 23.8435 28.876 24.4315 28.876C24.8495 28.876 25.0955 28.65 25.1915 28.194C25.2095 28.1 25.2295 27.72 25.2295 27.036H26.9555V27.284C26.9555 27.834 26.9555 28.214 26.9175 28.384C26.8775 28.762 26.7255 29.104 26.5195 29.408C26.0615 30.072 25.3615 30.414 24.4715 30.414C23.5795 30.414 22.9135 30.092 22.4215 29.446C22.0615 28.99 21.8715 28.25 21.8715 27.244V23.962C21.8715 22.956 22.0435 22.236 22.4035 21.76C22.8975 21.114 23.5615 20.792 24.4355 20.792C25.2915 20.792 25.9535 21.114 26.4455 21.76C26.7895 22.234 26.9595 22.954 26.9595 23.962V25.918H26.9535ZM18.8515 23.602V27.606C18.8515 28.46 18.6035 28.876 18.1115 28.876C17.8255 28.876 17.5415 28.744 17.2555 28.46V22.75C17.5415 22.464 17.8255 22.332 18.1115 22.332C18.6035 22.332 18.8515 22.768 18.8515 23.602Z" fill="#91E7DE"/>
</svg>
