<svg width="28" height="28" viewBox="0 0 28 28" fill="none" xmlns="http://www.w3.org/2000/svg">
<g id="Bell">
<path id="Vector" d="M20.1612 4.01123C19.8573 4.01123 19.6113 4.25726 19.6113 4.56112C19.6113 4.86504 19.8573 5.11102 20.1612 5.11102C21.5872 5.11102 22.7474 6.27123 22.7474 7.69723C22.7474 8.0011 22.9934 8.24712 23.2973 8.24712C23.6012 8.24712 23.8472 8.0011 23.8472 7.69723C23.8472 5.66472 22.1937 4.01123 20.1612 4.01123Z" fill="black" stroke="black" stroke-width="0.25"/>
<path id="Vector_2" d="M4.01172 7.69723C4.01172 8.0011 4.25769 8.24712 4.56161 8.24712C4.86549 8.24712 5.11151 8.0011 5.11151 7.69723C5.11151 6.27123 6.27172 5.11102 7.69767 5.11102C8.00159 5.11102 8.24757 4.86504 8.24757 4.56112C8.24757 4.25726 8.0016 4.01123 7.69767 4.01123C5.66516 4.01123 4.01172 5.66472 4.01172 7.69723Z" fill="black" stroke="black" stroke-width="0.25"/>
<path id="Vector_3" d="M20.7882 0.875C20.4843 0.875 20.2383 1.12103 20.2383 1.42489C20.2383 1.72876 20.4843 1.97479 20.7882 1.97479C23.5976 1.97479 25.8835 4.2603 25.8835 7.06966C25.8835 7.37359 26.1295 7.61955 26.4334 7.61955C26.7372 7.61955 26.9833 7.37359 26.9833 7.06966C26.9833 3.65376 24.2041 0.875 20.7882 0.875Z" fill="black" stroke="black" stroke-width="0.25"/>
<path id="Vector_4" d="M7.6196 1.42489C7.6196 1.12102 7.37358 0.875 7.0697 0.875C3.65377 0.875 0.875 3.65377 0.875 7.06966C0.875 7.37359 1.12103 7.61955 1.42489 7.61955C1.72876 7.61955 1.97479 7.37359 1.97479 7.06966C1.97479 4.26029 4.26029 1.97479 7.0697 1.97479C7.37358 1.97479 7.6196 1.72877 7.6196 1.42489Z" fill="black" stroke="black" stroke-width="0.25"/>
<path id="Vector_5" d="M5.23501 20.0486L5.35356 20.0883L5.23501 20.0486L4.00388 23.731C3.77743 24.4083 4.28159 25.1081 4.9958 25.1081H10.9056C11.3142 26.3417 12.4756 27.2326 13.8468 27.2326C15.2179 27.2326 16.3793 26.3417 16.788 25.1081H22.6978C23.412 25.1081 23.9161 24.4083 23.6897 23.731L22.4585 20.0486C22.4026 19.8814 22.3036 19.7434 22.1858 19.6323C22.1946 19.3915 22.2001 19.1489 22.2001 18.9039C22.2001 15.9938 21.5975 13.3034 20.5759 11.1266C19.5724 8.98849 18.1607 7.33792 16.5103 6.46855C16.5483 6.28953 16.5702 6.10375 16.5702 5.91188C16.5702 4.4078 15.3508 3.18848 13.8468 3.18848C12.3427 3.18848 11.1234 4.4078 11.1234 5.91188C11.1234 6.10375 11.1453 6.28953 11.1832 6.46855C9.53288 7.33792 8.12114 8.98849 7.1177 11.1266C6.09606 13.3034 5.49348 15.9938 5.49348 18.9039C5.49348 19.1489 5.49897 19.3915 5.50777 19.6323C5.38995 19.7434 5.29093 19.8814 5.23501 20.0486ZM12.3891 7.10733L12.4776 7.06237L12.4539 6.96593L12.289 6.2977L12.1707 6.32688L12.289 6.2977C12.2554 6.16141 12.2395 6.03548 12.2395 5.91188C12.2395 5.02575 12.9606 4.30462 13.8468 4.30462C14.7329 4.30462 15.4541 5.02575 15.4541 5.91188C15.4541 6.03548 15.4381 6.16141 15.4045 6.2977L15.5237 6.3271L15.4045 6.2977L15.2397 6.96593L15.2159 7.06237L15.3045 7.10733L15.9182 7.41886L15.9734 7.31015L15.9182 7.41886C17.4251 8.18377 18.7173 9.7398 19.6336 11.7698C20.549 13.798 21.0839 16.2884 21.0839 18.9039C21.0839 19.0407 21.0824 19.1789 21.0793 19.3182H6.61423C6.61117 19.1789 6.60963 19.0407 6.60963 18.9039C6.60963 16.2884 7.14453 13.798 8.05996 11.7698C8.97623 9.7398 10.2684 8.18377 11.7754 7.41886L11.7199 7.3097L11.7754 7.41886L12.3891 7.10733ZM22.6227 24.0083H16.821H10.8725H5.07081L6.26572 20.4343H21.4278L22.6227 24.0083ZM13.8468 26.1328C13.0983 26.1328 12.4441 25.7193 12.1014 25.1081H15.5921C15.2494 25.7193 14.5953 26.1328 13.8468 26.1328Z" fill="black" stroke="black" stroke-width="0.25"/>
</g>
</svg>
