<svg width="51" height="51" viewBox="0 0 51 51" fill="none" xmlns="http://www.w3.org/2000/svg">
<g id="Group 1000005287">
<ellipse id="Ellipse 409" cx="25.0885" cy="25.3813" rx="25.0885" ry="25.3813" fill="white"/>
<g id="Group 45">
<g id="Iconly/Bold/Camera">
<g id="Camera">
<path id="Vector" d="M27.1698 16.5034C28.079 16.5129 28.8195 16.9865 29.2506 17.839C29.3619 18.064 29.5172 18.3925 29.6798 18.7391L29.876 19.1582L29.9724 19.364L30.0661 19.5724C30.1036 19.6387 30.1692 19.6861 30.2536 19.6861C32.5032 19.6861 34.3403 21.5426 34.3403 23.8159V29.4424C34.3403 31.7157 32.5032 33.5723 30.2536 33.5723H19.6805C17.4215 33.5723 15.5938 31.7157 15.5938 29.4424V23.8159C15.5938 21.5426 17.4215 19.6861 19.6805 19.6861C19.7555 19.6861 19.8305 19.6482 19.8586 19.5724L19.9148 19.4587C20.1773 18.8999 20.496 18.2179 20.6834 17.839C21.1146 16.9865 21.8457 16.5129 22.7549 16.5034H27.1698ZM24.967 22.5751C23.9828 22.5751 23.0549 22.9634 22.3519 23.6738C21.6583 24.3843 21.274 25.3125 21.2833 26.2976C21.2833 27.2922 21.6676 28.2205 22.3613 28.9309C23.0643 29.6318 23.9828 30.0202 24.967 30.0202C25.9794 30.0202 26.8979 29.6034 27.5634 28.9309C28.2289 28.2584 28.6414 27.3301 28.6507 26.2976C28.6507 25.3125 28.2664 24.3748 27.5728 23.6644C26.8792 22.9634 25.9512 22.5751 24.967 22.5751ZM24.967 23.9959C25.5763 23.9959 26.1481 24.2327 26.5792 24.6684C27.0104 25.1041 27.2447 25.6819 27.2447 26.2976C27.2354 27.5669 26.2231 28.5994 24.967 28.5994C24.3578 28.5994 23.786 28.3626 23.3548 27.9268C22.9237 27.4911 22.6893 26.9133 22.6893 26.2976V26.2882C22.68 25.6914 22.9143 25.1136 23.3455 24.6779C23.786 24.2327 24.3578 23.9959 24.967 23.9959ZM30.2255 22.3477C29.7568 22.3477 29.3819 22.7361 29.3819 23.2097C29.3819 23.6833 29.7568 24.0622 30.2255 24.0622C30.6941 24.0622 31.0784 23.6833 31.0784 23.2097C31.0784 22.7361 30.6941 22.3477 30.2255 22.3477Z" fill="#2A353E"/>
</g>
</g>
<g id="Iconly/Bold/Arrow---Down-3">
<g id="Arrow---Down-3">
<path id="Vector_2" d="M19.402 35.9858C19.3045 36.0457 19.2437 36.1595 19.2437 36.2833V38.2109H15.8997C15.7308 38.2109 15.5938 38.3632 15.5938 38.5509C15.5938 38.7387 15.7308 38.891 15.8997 38.891H19.2437V40.8186C19.2437 40.9428 19.3045 41.0566 19.402 41.116C19.4995 41.1764 19.6186 41.1723 19.7128 41.1065L22.9496 38.8389C23.0385 38.7763 23.0924 38.6679 23.0924 38.5509C23.0924 38.434 23.0385 38.3256 22.9496 38.263L19.7128 35.9954C19.663 35.9609 19.6063 35.9432 19.5496 35.9432C19.4991 35.9432 19.4481 35.9577 19.402 35.9858Z" fill="#2A353E"/>
</g>
</g>
<g id="Iconly/Bold/Arrow---Down-3_2">
<g id="Arrow---Down-3_2">
<path id="Vector_3" d="M29.5951 8.96045C29.6925 9.0203 29.7533 9.13411 29.7533 9.2579V11.1855H33.0974C33.2663 11.1855 33.4033 11.3378 33.4033 11.5256C33.4033 11.7133 33.2663 11.8656 33.0974 11.8656H29.7533V13.7932C29.7533 13.9174 29.6925 14.0313 29.5951 14.0907C29.4976 14.151 29.3785 14.1469 29.2843 14.0811L26.0474 11.8135C25.9585 11.7509 25.9047 11.6425 25.9047 11.5256C25.9047 11.4086 25.9585 11.3002 26.0474 11.2376L29.2843 8.96997C29.334 8.93551 29.3907 8.91782 29.4474 8.91782C29.498 8.91782 29.549 8.93233 29.5951 8.96045Z" fill="#2A353E"/>
</g>
</g>
</g>
</g>
</svg>
