<svg width="17" height="17" viewBox="0 0 17 17" fill="none" xmlns="http://www.w3.org/2000/svg">
<g id="Group">
<path id="Vector" d="M16.3048 15.5886L15.0847 9.97102C15.0847 9.83025 15.0143 9.72634 14.9104 9.62243L6.1522 0.864215C5.48185 0.0966553 3.66183 -0.412816 2.3848 0.864215L0.77929 2.46972C-0.259764 3.50877 -0.259764 5.19808 0.77929 6.23713L9.53751 14.9953C9.6079 15.0657 9.7118 15.1361 9.85258 15.1696L15.5037 16.4601C15.8422 16.5104 16.4791 16.2958 16.3048 15.5886ZM1.75466 5.26176C1.23178 4.73888 1.23178 3.93445 1.75466 3.41157L3.36017 1.80607C3.86964 1.2966 4.70088 1.2966 5.21035 1.80607L13.201 9.79673H12.2927C11.9106 9.79673 11.5955 10.1118 11.5955 10.4939V11.6436H10.4458C10.0637 11.6436 9.74867 11.9586 9.74867 12.3407V13.2155L1.75466 5.26176ZM11.1397 14.02V13.0413H12.2893C12.8926 13.0982 12.9865 12.4882 12.9865 12.3441V11.1911H13.9652L14.7696 14.8546L11.1397 14.02Z" fill="#939393"/>
</g>
</svg>
