<svg width="18" height="15" viewBox="0 0 18 15" fill="none" xmlns="http://www.w3.org/2000/svg">
<g id="Group">
<g id="Group_2">
<path id="Vector" d="M13.5902 9.28355C13.1944 9.28355 12.8733 8.96238 12.8733 8.56663C12.8733 8.17088 13.1944 7.84971 13.5902 7.84971H17.139C16.9863 6.01578 16.26 4.34535 15.1352 3.01686L13.6418 4.51096C13.5013 4.65147 13.3185 4.72104 13.1349 4.72104C12.9514 4.72104 12.7678 4.6515 12.628 4.51096C12.3477 4.23136 12.3477 3.77754 12.628 3.49723L14.1214 2.00313C12.7937 0.878971 11.1225 0.152001 9.28856 3.35878e-05V3.54814C9.28856 3.94389 8.96809 4.26507 8.57164 4.26507C8.17589 4.26507 7.85471 3.94389 7.85471 3.54814V0C6.02153 0.152001 4.35036 0.878971 3.02258 2.0031L4.51594 3.4972C4.79625 3.77751 4.79625 4.23133 4.51594 4.51093C4.37613 4.65144 4.19261 4.721 4.00905 4.721C3.82553 4.721 3.64197 4.65147 3.50217 4.51093L2.00881 3.01683C0.883978 4.34532 0.157714 6.01578 0.00500733 7.84967H3.55312C3.94957 7.84967 4.27004 8.17085 4.27004 8.5666C4.27004 8.96234 3.94957 9.28352 3.55312 9.28352H0C0.146254 11.0235 0.82016 12.6911 1.93642 14.0418C2.07192 14.2067 2.2748 14.302 2.48847 14.302H14.6555C14.8692 14.302 15.0721 14.2067 15.2076 14.0418C16.3239 12.6911 16.9978 11.0235 17.144 9.28352H13.5902V9.28355ZM8.69497 10.0005L6.66747 7.97301L10.7224 5.94481L8.69497 10.0005Z" fill="#8C8888"/>
</g>
</g>
</svg>
