<svg width="19" height="21" viewBox="0 0 19 21" fill="none" xmlns="http://www.w3.org/2000/svg">
<g id="Group">
<g id="Group_2">
<path id="Vector" d="M12.8859 13.4658C12.7007 13.4658 12.5525 13.6057 12.532 13.791C12.3714 15.3796 11.0298 16.6184 9.39588 16.6184C7.76611 16.6184 6.42443 15.3796 6.2598 13.791C6.23923 13.6099 6.09106 13.4658 5.90586 13.4658H1.62566C0.728458 13.4658 0 14.1943 0 15.0915V18.4992C0 19.3964 0.728458 20.1248 1.62566 20.1248H17.1743C18.0715 20.1248 18.8 19.3964 18.8 18.4992V15.0956C18.8 14.1984 18.0715 13.4699 17.1743 13.4699H12.8859V13.4658Z" fill="#00ABBD"/>
<path id="Vector_2" d="M11.8282 8.17355L10.5565 9.44527V1.15648C10.5565 0.518564 10.0379 0 9.39999 0C8.76207 0 8.24351 0.518564 8.24351 1.15648V9.44527L6.97179 8.17355C6.58081 7.78257 5.95524 7.6838 5.4943 7.99246C4.86461 8.41225 4.80288 9.27241 5.3091 9.77863L8.7168 13.1863C9.09544 13.565 9.70866 13.565 10.0873 13.1863L13.495 9.77863C14.0012 9.27241 13.9395 8.41225 13.3098 7.99246C12.8447 7.67968 12.2192 7.77845 11.8282 8.17355Z" fill="#00ABBD"/>
</g>
</g>
</svg>
