<svg width="51" height="52" viewBox="0 0 51 52" fill="none" xmlns="http://www.w3.org/2000/svg">
<g id="Group 1000005288">
<ellipse id="Ellipse 407" cx="25.2292" cy="25.5237" rx="25.2292" ry="25.5237" fill="white"/>
<g id="Group 27">
<g id="Iconly/Bold/Voice-2">
<g id="Voice-2">
<path id="Vector" d="M31.0372 22.9461C31.4603 22.9461 31.8036 23.334 31.8036 23.8138C31.8036 27.7177 29.1933 30.9412 25.8458 31.3742V33.1209C25.8458 33.5999 25.5025 33.9886 25.0794 33.9886C24.6556 33.9886 24.3131 33.5999 24.3131 33.1209V31.3742C20.9648 30.9412 18.3545 27.7177 18.3545 23.8138C18.3545 23.334 18.6978 22.9461 19.1209 22.9461C19.5439 22.9461 19.8872 23.334 19.8872 23.8138C19.8872 27.0547 22.2163 29.6917 25.0794 29.6917C27.9419 29.6917 30.2709 27.0547 30.2709 23.8138C30.2709 23.334 30.6142 22.9461 31.0372 22.9461ZM25.2173 15.8472C26.7953 15.8472 28.1249 17.0481 28.5319 18.6872C28.5878 18.9119 28.4399 19.1349 28.2345 19.1349H27.3386C27.0681 19.1349 26.8482 19.3831 26.8482 19.6894C26.8482 19.9974 27.0681 20.2456 27.3386 20.2456H28.1648C28.4384 20.2456 28.6606 20.4964 28.6606 20.8062C28.6606 21.1159 28.4384 21.3667 28.1648 21.3667H27.3386C27.0681 21.3667 26.8482 21.6157 26.8482 21.9229C26.8482 22.2292 27.0681 22.4782 27.3386 22.4782H28.1648C28.4384 22.4782 28.6606 22.729 28.6606 23.0396C28.6606 23.3486 28.4384 23.5993 28.1648 23.5993H27.3386C27.0681 23.5993 26.8482 23.8484 26.8482 24.1555C26.8482 24.4618 27.0681 24.71 27.3386 24.71H28.1908C28.4008 24.71 28.551 24.9425 28.4851 25.1681C28.0307 26.7179 26.7401 27.8355 25.2173 27.8355H24.9406C23.0393 27.8355 21.4981 26.0905 21.4981 23.9386V19.7449C21.4981 17.5921 23.0393 15.8472 24.9406 15.8472H25.2173Z" fill="#2A353E"/>
</g>
</g>
<rect id="Rectangle 50" width="3.60742" height="27.0557" transform="matrix(0.702992 -0.711197 0.702992 0.711197 14.3193 17.0518)" fill="#2A353E" stroke="#E2E2E2" stroke-width="2"/>
</g>
</g>
</svg>
