<svg width="22" height="25" viewBox="0 0 22 25" fill="none" xmlns="http://www.w3.org/2000/svg">
<path id="Vector" d="M16.9925 7.22923C16.9191 7.49291 16.6816 7.66538 16.4231 7.66538C16.3702 7.66538 16.3164 7.65809 16.2627 7.64291L11.5252 6.29933C11.2105 6.21004 11.0271 5.88015 11.1155 5.56234C11.2039 5.24464 11.5304 5.05925 11.8452 5.14854L16.5829 6.49212C16.8974 6.58153 17.0809 6.91142 16.9925 7.22923ZM8.58094 21.7854C7.70335 21.7854 6.98933 22.5065 6.98933 23.3927C6.98933 24.279 7.70335 25 8.58094 25C9.45852 25 10.1724 24.279 10.1724 23.3927C10.1724 22.5065 9.45852 21.7854 8.58094 21.7854ZM18.2408 21.7854C17.3632 21.7854 16.6492 22.5065 16.6492 23.3927C16.6492 24.279 17.3632 25 18.2408 25C19.1184 25 19.8324 24.279 19.8324 23.3927C19.8323 22.5065 19.1184 21.7854 18.2408 21.7854ZM21.9903 8.69975L20.4522 17.1909C20.4007 17.4748 20.1558 17.681 19.8701 17.681H7.16733L7.49399 19.2363C7.57518 19.6227 7.91804 19.9032 8.3092 19.9032H19.0498C19.3766 19.9032 19.6416 20.1708 19.6416 20.5008C19.6416 20.8308 19.3766 21.0985 19.0498 21.0985H8.30908C7.36238 21.0985 6.53261 20.4196 6.33614 19.4843L5.85989 17.2169L2.6917 4.21828H0.591764C0.264992 4.21828 0 3.95066 0 3.62065C0 3.29064 0.264992 3.02302 0.591764 3.02302H3.15541C3.42774 3.02302 3.66491 3.21068 3.73001 3.47782L4.82655 7.97662L8.37347 7.98045L9.99336 2.15515C9.99348 2.15491 9.99336 2.15479 9.99348 2.15455L10.4714 0.436259C10.5598 0.118561 10.8865 -0.0669417 11.2012 0.0224631L19.7756 2.45408C20.0903 2.54337 20.2737 2.87326 20.1853 3.19096C20.1119 3.45475 19.8744 3.6271 19.6159 3.62722C19.563 3.62722 19.5092 3.62005 19.4557 3.60475L19.3248 3.56758L19.1716 4.11835L19.3025 4.15541C19.6171 4.24469 19.8006 4.57458 19.7123 4.8924L18.8504 7.99168L21.4092 7.99443C21.5846 7.99455 21.751 8.07344 21.8633 8.20958C21.9753 8.34596 22.0219 8.52537 21.9903 8.69975ZM11.4506 1.33461L11.2975 1.88538L18.0318 3.79528L18.1849 3.2445L11.4506 1.33461ZM9.9027 7.982L17.3688 7.99013L17.731 6.68743C17.7734 6.53479 17.7541 6.3714 17.6773 6.23323C17.6005 6.09494 17.4724 5.99334 17.3213 5.95043L11.5383 4.31043C11.3873 4.26752 11.2255 4.287 11.0886 4.36469C10.9518 4.44227 10.8511 4.57159 10.8086 4.72423L9.9027 7.982Z" fill="#8C8888"/>
</svg>
