<svg width="13" height="17" viewBox="0 0 13 17" fill="none" xmlns="http://www.w3.org/2000/svg">
<g id="Group">
<g id="Group_2">
<g id="Group_3">
<path id="Vector" d="M6.4997 7.79628C8.44259 7.79628 10.0228 6.21603 10.0228 4.27314C10.0229 2.33024 8.44258 0.75 6.4997 0.75C4.55681 0.75 2.97656 2.33025 2.97656 4.27314C2.97656 6.21608 4.55681 7.79628 6.4997 7.79628ZM6.4997 2.03154C7.73554 2.03154 8.7413 3.03734 8.7413 4.27314C8.7413 5.50893 7.73549 6.51473 6.4997 6.51473C5.26391 6.51473 4.2581 5.50893 4.2581 4.27314C4.2581 3.03735 5.26391 2.03154 6.4997 2.03154Z" fill="#D6A461" stroke="#D6A461" stroke-width="0.5"/>
<path id="Vector_2" d="M3.10941 10.8165L3.10941 10.8165L2.03605 15.2692C2.03605 15.2692 2.03604 15.2692 2.03604 15.2692C2.01471 15.3578 2.08185 15.443 2.17289 15.443H5.20986L4.40894 14.3868C4.40892 14.3868 4.40891 14.3867 4.4089 14.3867C4.30566 14.2506 4.26111 14.079 4.28504 13.9099M3.10941 10.8165L4.53258 13.9449M3.10941 10.8165C3.12479 10.7527 3.18047 10.7088 3.24631 10.7088H4.73756M3.10941 10.8165L4.73756 10.7088M4.28504 13.9099L4.53258 13.9449M4.28504 13.9099L4.28504 13.9099L4.53258 13.9449M4.28504 13.9099L4.73756 10.7088M4.53258 13.9449L4.99005 10.7088H4.73756M1.86351 10.5162L1.86351 10.5162L0.790141 14.9688L0.790139 14.9689C0.574603 15.8631 1.25182 16.7245 2.17289 16.7245H10.8271C11.7469 16.7245 12.4257 15.8645 12.2098 14.9688L11.1364 10.5162C11.1364 10.5162 11.1364 10.5162 11.1364 10.5162C10.982 9.87546 10.4129 9.42725 9.75369 9.42725H9.74964H9.74549H9.74124H9.73689H9.73243H9.72787H9.72321H9.71845H9.71358H9.70862H9.70356H9.6984H9.69314H9.68778H9.68232H9.67677H9.67112H9.66537H9.65952H9.65358H9.64755H9.64141H9.63519H9.62887H9.62245H9.61594H9.60934H9.60265H9.59586H9.58898H9.58201H9.57495H9.5678H9.56056H9.55322H9.5458H9.53829H9.53069H9.523H9.51523H9.50737H9.49942H9.49138H9.48326H9.47505H9.46675H9.45837H9.44991H9.44136H9.43273H9.42402H9.41522H9.40634H9.39738H9.38833H9.37921H9.37H9.36071H9.35135H9.3419H9.33237H9.32277H9.31309H9.30332H9.29349H9.28357H9.27358H9.26351H9.25336H9.24314H9.23285H9.22247H9.21203H9.20151H9.19092H9.18025H9.16951H9.1587H9.14782H9.13686H9.12584H9.11474H9.10358H9.09234H9.08103H9.06966H9.05822H9.0467H9.03512H9.02348H9.01176H8.99998H8.98814H8.97622H8.96425H8.9522H8.9401H8.92792H8.91569H8.90339H8.89103H8.8786H8.86612H8.85357H8.84096H8.82829H8.81556H8.80277H8.78992H8.77701H8.76404H8.75102H8.73793H8.72479H8.71159H8.69833H8.68502H8.67165H8.65823H8.64475H8.63121H8.61763H8.60398H8.59029H8.57654H8.56274H8.54888H8.53498H8.52102H8.50701H8.49295H8.47884H8.46468H8.45047H8.43622H8.42191H8.40756H8.39315H8.3787H8.36421H8.34966H8.33507H8.32044H8.30576H8.29103H8.27626H8.26145H8.24659H8.23169H8.21675H8.20176H8.18673H8.17166H8.15655H8.1414H8.1262H8.11097H8.0957H8.08039H8.06504H8.04965H8.03422H8.01876H8.00325H7.98772H7.97214H7.95653H7.94088H7.9252H7.90949H7.89373H7.87795H7.86213H7.84628H7.8304H7.81448H7.79853H7.78255H7.76654H7.7505H7.73443H7.71833H7.7022H7.68604H7.66985H7.65364H7.63739H7.62112H7.60482H7.5885H7.57215H7.55577H7.53937H7.52294H7.50649H7.49001H7.47352H7.45699H7.44045H7.42388H7.40729H7.39068H7.37405H7.35739H7.34072H7.32402H7.30731H7.29058H7.27383H7.25705H7.24027H7.22346H7.20664H7.1898H7.17294H7.15607H7.13918H7.12228H7.10536H7.08843H7.07149H7.05453H7.03756H7.02057H7.00358H6.98657H6.96955H6.95252H6.93547H6.91842H6.90136H6.88429H6.86721H6.85012H6.83303H6.81592H6.79881H6.78169H6.76456H6.74743H6.7303H6.71315H6.69601H6.67885H6.6617H6.64454H6.62738H6.61021H6.59304H6.57587H6.5587H6.54153H6.52435H6.50718H6.49001H6.47283H6.45566H6.43849H6.42132H6.40415H6.38698H6.36982H6.35266H6.33551H6.31836H6.30121H6.28407H6.26693H6.2498H6.23267H6.21555H6.19844H6.18134H6.16424H6.14715H6.13008H6.113H6.09594H6.07889H6.06185H6.04482H6.0278H6.01079H5.9938H5.97681H5.95984H5.94288H5.92594H5.90901H5.89209H5.87519H5.8583H5.84143H5.82458H5.80774H5.79092H5.77411H5.75733H5.74056H5.72381H5.70708H5.69036H5.67367H5.657H5.64034H5.62371H5.6071H5.59051H5.57395H5.5574H5.54088H5.52438H5.50791H5.49146H5.47503H5.45863H5.44226H5.42591H5.40958H5.39329H5.37702H5.36077H5.34456H5.32837H5.31222H5.29609H5.27999H5.26392H5.24788H5.23187H5.21589H5.19995H5.18403H5.16815H5.1523H5.13648H5.1207H5.10495H5.08924H5.07356H5.05791H5.04231H5.02673H5.0112H4.9957H4.98023H4.96481H4.94942H4.93407H4.91876H4.90349H4.88826H4.87307H4.85792H4.84281H4.82774H4.81272H4.79773H4.78279H4.76789H4.75304H4.73823H4.72346H4.70873H4.69406H4.67942H4.66484H4.6503H4.6358H4.62135H4.60696H4.5926H4.5783H4.56404H4.54984H4.53568H4.52157H4.50752H4.49351H4.47956H4.46566H4.4518H4.438H4.42426H4.41057H4.39693H4.38334H4.36981H4.35633H4.34291H4.32955H4.31624H4.30298H4.28979H4.27665H4.26357H4.25054H4.23758H4.22467H4.21182H4.19904H4.18631H4.17364H4.16104H4.14849H4.13601H4.12359H4.11123H4.09894H4.0867H4.07454H4.06243H4.05039H4.03842H4.02651H4.01467H4.00289H3.99118H3.97954H3.96796H3.95645H3.94501H3.93364H3.92234H3.91111H3.89994H3.88885H3.87783H3.86688H3.856H3.84519H3.83446H3.8238H3.81321H3.80269H3.79225H3.78188H3.77159H3.76137H3.75123H3.74117H3.73118H3.72127H3.71143H3.70168H3.692H3.6824H3.67287H3.66343H3.65407H3.64479H3.63558H3.62646H3.61742H3.60847H3.59959H3.5908H3.58209H3.57346H3.56492H3.55646H3.54808H3.53979H3.53159H3.52347H3.51544H3.50749H3.49963H3.49186H3.48418H3.47659H3.46908H3.46166H3.45434H3.4471H3.43995H3.4329H3.42593H3.41906H3.41227H3.40559H3.39899H3.39249H3.38608H3.37976H3.37354H3.36741H3.36138H3.35544H3.3496H3.34386H3.33822H3.33267H3.32721H3.32186H3.31661H3.31145H3.30639H3.30144H3.29658H3.29182H3.28717H3.28261H3.27816H3.27381H3.26957H3.26542H3.26138H3.25744H3.25361H3.24988H3.24626C2.58714 9.42725 2.01801 9.87547 1.86351 10.5162ZM10.8271 15.443H7.79013L8.59105 14.3868L8.59106 14.3868C8.69424 14.2507 8.73884 14.079 8.71491 13.9099C8.71491 13.9099 8.7149 13.9099 8.7149 13.9099L8.26239 10.7088H9.75364C9.8194 10.7088 9.87515 10.7528 9.89053 10.8166L9.89054 10.8166L10.9639 15.2693L10.9639 15.2693C10.9853 15.3578 10.9183 15.443 10.8271 15.443ZM6.5 15.0233L5.5914 13.8251L6.03192 10.7088H6.96813L7.40865 13.8251L6.5 15.0233Z" fill="#D6A461" stroke="#D6A461" stroke-width="0.5"/>
</g>
</g>
</g>
</svg>
