<svg width="29" height="31" viewBox="0 0 29 31" fill="none" xmlns="http://www.w3.org/2000/svg">
<g id="Group 1000005293">
<path id="Vector" d="M0 9.3V0H2.06667V9.3C2.06667 11.0121 3.45458 12.4 5.16667 12.4C6.87876 12.4 8.26667 11.0121 8.26667 9.3V3.1C8.26667 2.52931 7.80402 2.06667 7.23333 2.06667C6.66264 2.06667 6.2 2.52931 6.2 3.1V10.3333H4.13333V3.1C4.13333 1.38792 5.52124 0 7.23333 0C8.94542 0 10.3333 1.38792 10.3333 3.1V9.3C10.3333 12.1535 8.02013 14.4667 5.16667 14.4667C2.3132 14.4667 0 12.1535 0 9.3Z" fill="#00ABBD"/>
<path id="Vector_2" fill-rule="evenodd" clip-rule="evenodd" d="M25.8331 0H12.3997V9.3C12.3997 13.2949 9.16127 16.5333 5.16641 16.5333H2.06641V27.9C2.06641 29.612 3.45432 31 5.16641 31H25.8331C27.5451 31 28.9331 29.612 28.9331 27.9V3.1C28.9331 1.38792 27.5451 0 25.8331 0ZM22.7331 8.26667H14.4664V10.3333H22.7331V8.26667ZM22.7331 14.4667H14.4664V16.5333H22.7331V14.4667ZM8.26641 20.6667H22.7331V22.7333H8.26641V20.6667Z" fill="#00ABBD"/>
</g>
</svg>
