<svg width="17" height="17" viewBox="0 0 17 17" fill="none" xmlns="http://www.w3.org/2000/svg">
<g id="Search">
<path id="Combined-Shape" fill-rule="evenodd" clip-rule="evenodd" d="M7.98984 0C12.3954 0 15.9789 3.58349 15.9789 7.98902C15.9789 10.0675 15.1812 11.9632 13.8759 13.386L16.4443 15.9491C16.6847 16.1894 16.6855 16.5783 16.4452 16.8187C16.3254 16.9401 16.1671 17 16.0095 17C15.8528 17 15.6953 16.9401 15.5747 16.8203L12.9753 14.2281C11.6078 15.3232 9.87402 15.9789 7.98984 15.9789C3.58431 15.9789 0 12.3945 0 7.98902C0 3.58349 3.58431 0 7.98984 0ZM7.98984 1.23059C4.26278 1.23059 1.23059 4.26196 1.23059 7.98902C1.23059 11.7161 4.26278 14.7483 7.98984 14.7483C11.7161 14.7483 14.7483 11.7161 14.7483 7.98902C14.7483 4.26196 11.7161 1.23059 7.98984 1.23059Z" fill="#2E2C2C"/>
</g>
</svg>
