<svg width="21" height="21" viewBox="0 0 21 21" fill="none" xmlns="http://www.w3.org/2000/svg">
<g id="Group 1">
<g id="Group">
<g id="Group_2">
<path id="Vector" d="M17.3196 0.865963V0.757723C17.3196 0.339938 16.9796 0 16.5619 0H15.6959C15.2781 0 14.9381 0.339938 14.9381 0.757723V0.865963H11.6907V0.757723C11.6907 0.339938 11.3508 0 10.933 0H10.067C9.64925 0 9.30932 0.339938 9.30932 0.757723V0.865963H6.0619V0.757723C6.06186 0.339938 5.72193 0 5.30414 0H4.43818C4.02035 0 3.68041 0.339938 3.68041 0.757723V0.865963H0V21H21V0.865963H17.3196ZM15.5876 0.757723C15.5876 0.69907 15.6372 0.649482 15.6959 0.649482H16.5618C16.6205 0.649482 16.6701 0.69907 16.6701 0.757723V2.59793H15.5876V0.757723H15.5876ZM9.95876 0.757723C9.95876 0.69907 10.0083 0.649482 10.067 0.649482H10.933C10.9916 0.649482 11.0412 0.69907 11.0412 0.757723V2.59793H9.95872V0.757723H9.95876ZM4.3299 0.757723C4.3299 0.69907 4.37948 0.649482 4.43814 0.649482H5.3041C5.36275 0.649482 5.41234 0.69907 5.41234 0.757723V2.59793H4.32986V0.757723H4.3299ZM20.3505 20.3505H0.649482V6.71135H20.3505V20.3505V20.3505ZM20.3505 6.06186H0.649482V4.97938H18.0773V4.3299H0.649482V1.51545H3.68041V3.24741H6.06186V1.51545H9.30928V3.24741H11.6907V1.51545H14.9381V3.24741H17.3196V1.51545H20.3505V6.06186Z" fill="#8C8888"/>
</g>
</g>
<g id="Group_3">
<g id="Group_4">
<path id="Vector_2" d="M10.1754 7.57715V10.3916H1.51562V19.4844H15.1548V16.8865H19.4847V7.57715H10.1754ZM9.40473 11.0411L8.33525 11.7363L7.26577 11.0411H9.40473ZM9.40473 13.206H7.26577L8.33525 12.5108L9.40473 13.206ZM6.49504 11.3147L7.73942 12.1236L6.49504 12.9324V11.3147ZM2.16515 17.1353L3.37417 17.8607L2.16515 18.5861V17.1353V17.1353ZM3.01278 16.8864H4.99785L4.00531 17.482L3.01278 16.8864ZM3.01278 18.8349L4.00531 18.2393L4.99785 18.8349H3.01278ZM5.84552 18.5861L4.6365 17.8607L5.84552 17.1352V18.5861ZM5.84552 16.2369H2.16515V13.8555H5.84556V16.2369H5.84552ZM5.84552 13.206H2.16515V11.041H5.84556V13.206H5.84552ZM10.1754 18.8349H6.495V16.8864H10.1754V18.8349ZM10.1754 16.2369H6.495V13.8555H10.1754V16.2369ZM10.1754 12.9324L8.93104 12.1236L10.1754 11.3147V12.9324ZM13.7346 8.22663L12.6651 8.9218L11.5957 8.22663H13.7346ZM12.6651 14.7486L11.4744 13.8555H13.8559L12.6651 14.7486ZM12.6657 15.5414L13.7352 16.2369H11.5956L12.6657 15.5414ZM11.5956 13.206L12.6651 12.5108L13.7346 13.206H11.5956ZM11.5956 11.0411H13.7346L12.6651 11.7363L11.5956 11.0411ZM11.5956 10.3916L12.6651 9.69643L13.7346 10.3916H11.5956ZM10.8249 8.50029L12.0693 9.30911L10.8249 10.1179V8.50029ZM10.8249 11.3147L12.0693 12.1236L10.8249 12.9324V11.3147ZM10.8249 14.1803L12.0985 15.1355L10.8249 15.9633V14.1803ZM14.5053 18.8349H10.8249V16.8864H14.5053V18.8349ZM14.5053 15.9633L13.2317 15.1355L14.5053 14.1803V15.9633ZM14.5053 12.9324L13.2609 12.1236L14.5053 11.3147V12.9324ZM14.5053 10.1179L13.2609 9.30911L14.5053 8.50029V10.1179ZM18.0645 8.22663L16.995 8.9218L15.9256 8.22663H18.0645ZM18.0645 10.3916H15.9256L16.995 9.69643L18.0645 10.3916ZM15.1548 8.50029L16.3992 9.30911L15.1548 10.1179V8.50029ZM18.8352 16.2369H15.1548V13.8555H18.8352V16.2369ZM18.8352 13.206H15.1548V11.041H18.8352V13.206ZM18.8352 10.1179L17.5908 9.30911L18.8352 8.50029V10.1179Z" fill="#8C8888"/>
</g>
</g>
</g>
</svg>
