<svg width="26" height="26" viewBox="0 0 26 26" fill="none" xmlns="http://www.w3.org/2000/svg">
<g id="Group">
<g id="Group_2">
<path id="Vector" d="M24.3867 10.1531L22.5827 9.84704C22.3948 9.24033 22.1532 8.65509 21.8579 8.0967L22.921 6.60944C23.372 5.97588 23.3022 5.11144 22.7491 4.56379L21.1491 2.96378C20.8485 2.6631 20.4511 2.49666 20.027 2.49666C19.6941 2.49666 19.3773 2.59867 19.1089 2.79196L17.6162 3.85506C17.0364 3.54902 16.4296 3.29667 15.8014 3.10875L15.5008 1.32618C15.3719 0.558393 14.7115 0 13.933 0H11.6726C10.894 0 10.2336 0.558393 10.1048 1.32618L9.79335 3.1517C9.19201 3.33962 8.60677 3.5866 8.04838 3.88727L6.57186 2.82418C6.3034 2.63089 5.98125 2.52888 5.64836 2.52888C5.2242 2.52888 4.82151 2.69532 4.5262 2.99599L2.92082 4.596C2.37317 5.14366 2.298 6.00809 2.74901 6.64165L3.82284 8.15039C3.52754 8.71415 3.2913 9.29939 3.10875 9.90611L1.32618 10.2068C0.558393 10.3356 0 10.996 0 11.7746V14.035C0 14.8135 0.558393 15.4739 1.32618 15.6028L3.1517 15.9142C3.33962 16.5155 3.5866 17.1008 3.88727 17.6592L2.82955 19.1303C2.37854 19.7639 2.44834 20.6283 3.00136 21.176L4.60137 22.776C4.90205 23.0767 5.29936 23.2431 5.72353 23.2431C6.05642 23.2431 6.3732 23.1411 6.64165 22.9478L8.15039 21.874C8.69268 22.1585 9.26181 22.3894 9.84705 22.572L10.1477 24.376C10.2766 25.1438 10.937 25.7022 11.7155 25.7022H13.9813C14.7598 25.7022 15.4202 25.1438 15.5491 24.376L15.8551 22.572C16.4619 22.384 17.0471 22.1424 17.6055 21.8471L19.0927 22.9102C19.3612 23.1035 19.6834 23.2055 20.0162 23.2055C20.4404 23.2055 20.8377 23.0391 21.1384 22.7384L22.7384 21.1384C23.2861 20.5907 23.3612 19.7263 22.9102 19.0927L21.8471 17.6001C22.1424 17.0364 22.3894 16.4511 22.572 15.8498L24.376 15.5491C25.1438 15.4202 25.7022 14.7598 25.7022 13.9813V11.7209C25.7129 10.9424 25.1545 10.2819 24.3867 10.1531ZM24.2632 13.9813C24.2632 14.0511 24.2149 14.1102 24.1451 14.1209L21.8901 14.4967C21.6055 14.5451 21.38 14.7545 21.3102 15.0283C21.1062 15.8176 20.7948 16.5746 20.376 17.278C20.231 17.5249 20.2417 17.831 20.4082 18.0672L21.7344 19.9357C21.772 19.9894 21.7666 20.0699 21.7183 20.1183L20.1183 21.7183C20.0807 21.7558 20.0431 21.7612 20.0162 21.7612C19.984 21.7612 19.9572 21.7505 19.9357 21.7344L18.0726 20.4082C17.8417 20.2417 17.5303 20.231 17.2833 20.376C16.58 20.7948 15.8229 21.1062 15.0337 21.3102C14.7545 21.38 14.5451 21.6109 14.5021 21.8901L14.1209 24.1451C14.1102 24.2149 14.0511 24.2632 13.9813 24.2632H11.7209C11.6511 24.2632 11.592 24.2149 11.5813 24.1451L11.2054 21.8901C11.1571 21.6055 10.9477 21.38 10.6739 21.3102C9.90611 21.1115 9.16516 20.8055 8.47254 20.4082C8.35979 20.3438 8.23093 20.3115 8.10744 20.3115C7.96247 20.3115 7.81213 20.3545 7.68864 20.4458L5.80943 21.7827C5.78259 21.7988 5.75574 21.8095 5.7289 21.8095C5.70742 21.8095 5.66447 21.8042 5.62688 21.7666L4.02687 20.1666C3.97855 20.1183 3.97318 20.0431 4.01076 19.984L5.33158 18.1317C5.49802 17.8954 5.50876 17.584 5.36379 17.337C4.945 16.639 4.62285 15.882 4.41882 15.0927C4.34365 14.8189 4.11815 14.6095 3.83895 14.5612L1.5678 14.1746C1.498 14.1639 1.44967 14.1048 1.44967 14.035V11.7746C1.44967 11.7048 1.498 11.6457 1.5678 11.635L3.80674 11.2591C4.0913 11.2108 4.32218 11.0014 4.39198 10.7222C4.59063 9.93295 4.89668 9.17053 5.3101 8.46717C5.45507 8.22019 5.43896 7.91415 5.27252 7.68327L3.9356 5.80407C3.89801 5.75037 3.90338 5.66984 3.9517 5.62151L5.55171 4.0215C5.5893 3.98392 5.62688 3.97855 5.65373 3.97855C5.68594 3.97855 5.71279 3.98929 5.73427 4.0054L7.58663 5.32621C7.82287 5.49265 8.13428 5.50339 8.38126 5.35842C9.07926 4.93963 9.83631 4.61748 10.6256 4.41345C10.8994 4.33828 11.1088 4.11278 11.1571 3.83358L11.5437 1.56243C11.5544 1.49263 11.6135 1.4443 11.6833 1.4443H13.9437C14.0135 1.4443 14.0726 1.49263 14.0833 1.56243L14.4592 3.80137C14.5075 4.08593 14.7169 4.31681 14.9961 4.38661C15.8068 4.59063 16.58 4.90742 17.2994 5.33158C17.5464 5.47655 17.8525 5.46581 18.0887 5.29936L19.9411 3.96781C19.9679 3.9517 19.9948 3.94097 20.0216 3.94097C20.0431 3.94097 20.086 3.94633 20.1236 3.98392L21.7236 5.58393C21.772 5.63225 21.7773 5.70742 21.7397 5.76648L20.4136 7.62958C20.2471 7.86045 20.2364 8.17187 20.3813 8.41885C20.8001 9.12221 21.1116 9.87926 21.3156 10.6685C21.3854 10.9477 21.6163 11.1571 21.8954 11.2001L24.1505 11.5813C24.2203 11.592 24.2686 11.6511 24.2686 11.7209V13.9813H24.2632V13.9813Z" fill="black"/>
<path id="Vector_2" d="M12.853 7.30225C9.79256 7.30225 7.30664 9.78817 7.30664 12.8486C7.30664 15.909 9.79256 18.3949 12.853 18.3949C15.9134 18.3949 18.3993 15.909 18.3993 12.8486C18.3993 9.78817 15.9134 7.30225 12.853 7.30225ZM12.853 16.9453C10.5926 16.9453 8.75631 15.109 8.75631 12.8486C8.75631 10.5882 10.5926 8.75192 12.853 8.75192C15.1134 8.75192 16.9497 10.5882 16.9497 12.8486C16.9497 15.109 15.1134 16.9453 12.853 16.9453Z" fill="black"/>
</g>
</g>
</svg>
