<svg width="52" height="52" viewBox="0 0 52 52" fill="none" xmlns="http://www.w3.org/2000/svg">
<g id="Group 1000005305">
<ellipse id="Ellipse 409" cx="25.8114" cy="25.6108" rx="25.3153" ry="25.6108" fill="#7B61FF"/>
<g id="Group 1000005302">
<path id="Vector" d="M34.3475 33.7074C34.1326 33.6636 33.9401 33.5439 33.8046 33.3696C33.6691 33.1953 33.5993 32.9779 33.6079 32.7563V17.932C33.6079 17.6929 33.514 17.4636 33.3469 17.2946C33.1798 17.1255 32.9532 17.0305 32.7168 17.0305H19.8456C19.6266 17.0392 19.4117 16.9686 19.2394 16.8315C19.0672 16.6944 18.9488 16.4997 18.9056 16.2823C18.8833 16.1518 18.8897 16.0179 18.9244 15.8902C18.9591 15.7624 19.0212 15.644 19.1063 15.5433C19.1914 15.4426 19.2973 15.3621 19.4166 15.3075C19.536 15.253 19.6657 15.2257 19.7966 15.2276H33.6079C34.0805 15.2276 34.5338 15.4176 34.868 15.7557C35.2022 16.0938 35.39 16.5524 35.39 17.0305V32.8059C35.3919 32.9384 35.3649 33.0696 35.311 33.1903C35.2571 33.311 35.1775 33.4182 35.078 33.5043C34.9784 33.5904 34.8614 33.6532 34.7351 33.6883C34.6088 33.7234 34.4765 33.7299 34.3475 33.7074Z" fill="#D6CEFF"/>
<path id="Vector_2" d="M30.4892 18.3828H18.0145C17.0303 18.3828 16.2324 19.19 16.2324 20.1857V34.6089C16.2324 35.6046 17.0303 36.4118 18.0145 36.4118H30.4892C31.4734 36.4118 32.2713 35.6046 32.2713 34.6089V20.1857C32.2713 19.19 31.4734 18.3828 30.4892 18.3828Z" fill="white"/>
</g>
</g>
</svg>
