<svg width="50" height="50" viewBox="0 0 50 50" fill="none" xmlns="http://www.w3.org/2000/svg">
<g id="Group 743" filter="url(#filter0_d_101_660)">
<path id="Vector" d="M25 6.00001C23.985 5.99867 22.9863 6.25483 22.0973 6.74452C21.2083 7.23422 20.458 7.94143 19.9167 8.8C19.4257 8.68153 18.9217 8.62554 18.4167 8.63334C16.8969 8.68979 15.4553 9.32124 14.3833 10.4C13.6798 11.1174 13.1676 11.9999 12.8939 12.9667C12.6201 13.9335 12.5936 14.9536 12.8167 15.9333C11.9574 16.4712 11.2484 17.2179 10.7558 18.1039C10.2633 18.9899 10.0033 19.9863 10 21C10.0004 22.0165 10.2591 23.0163 10.7518 23.9054C11.2445 24.7946 11.955 25.544 12.8167 26.0833C12.5957 27.0644 12.6249 28.0854 12.9016 29.0522C13.1782 30.0191 13.6935 30.9009 14.4 31.6167C15.1191 32.3342 16.0086 32.8574 16.9852 33.1373C17.9617 33.4171 18.9933 33.4444 19.9833 33.2167C20.5206 34.0626 21.2611 34.7606 22.1374 35.2468C23.0138 35.733 23.9979 35.9919 25 36C26.0106 36.0003 27.0049 35.7453 27.8906 35.2588C28.7764 34.7722 29.5249 34.0698 30.0667 33.2167C31.0534 33.4377 32.0799 33.4059 33.051 33.124C34.0221 32.8422 34.9061 32.3195 35.6211 31.6045C36.3361 30.8895 36.8588 30.0054 37.1407 29.0343C37.4225 28.0632 37.4544 27.0367 37.2333 26.05C38.081 25.5078 38.7786 24.761 39.2621 23.8786C39.7455 22.9961 39.9993 22.0062 40 21C40.0003 19.9894 39.7453 18.9951 39.2588 18.1094C38.7722 17.2236 38.0698 16.4751 37.2167 15.9333C37.4377 14.9466 37.4059 13.9201 37.124 12.949C36.8422 11.9779 36.3195 11.0939 35.6045 10.3789C34.8895 9.66387 34.0054 9.14118 33.0343 8.85932C32.0632 8.57746 31.0367 8.54559 30.05 8.76667C29.5078 7.91905 28.761 7.22141 27.8786 6.73795C26.9961 6.25448 26.0062 6.00072 25 6.00001Z" fill="#8C36F9"/>
<g id="Vector_2">
<path d="M29.9987 17.667L23.332 24.3337L29.9987 17.667Z" fill="#8C36F9"/>
<path d="M29.9987 17.667L23.332 24.3337" stroke="white" stroke-width="2" stroke-linecap="round" stroke-linejoin="round"/>
</g>
<g id="Vector_3">
<path d="M20 21L23.3333 24.3333L20 21Z" fill="#8C36F9"/>
<path d="M20 21L23.3333 24.3333" stroke="white" stroke-width="2" stroke-linecap="round" stroke-linejoin="round"/>
</g>
</g>
<defs>
<filter id="filter0_d_101_660" x="0" y="0" width="50" height="50" filterUnits="userSpaceOnUse" color-interpolation-filters="sRGB">
<feFlood flood-opacity="0" result="BackgroundImageFix"/>
<feColorMatrix in="SourceAlpha" type="matrix" values="0 0 0 0 0 0 0 0 0 0 0 0 0 0 0 0 0 0 127 0" result="hardAlpha"/>
<feOffset dy="4"/>
<feGaussianBlur stdDeviation="5"/>
<feComposite in2="hardAlpha" operator="out"/>
<feColorMatrix type="matrix" values="0 0 0 0 0 0 0 0 0 0 0 0 0 0 0 0 0 0 0.25 0"/>
<feBlend mode="normal" in2="BackgroundImageFix" result="effect1_dropShadow_101_660"/>
<feBlend mode="normal" in="SourceGraphic" in2="effect1_dropShadow_101_660" result="shape"/>
</filter>
</defs>
</svg>
