<svg width="66" height="66" viewBox="0 0 66 66" fill="none" xmlns="http://www.w3.org/2000/svg">
<g id="Group 744" filter="url(#filter0_d_101_656)">
<path id="Vector" d="M33 6.00001C31.4437 5.99796 29.9123 6.39074 28.5492 7.1416C27.186 7.89247 26.0356 8.97687 25.2056 10.2933C24.4527 10.1117 23.6799 10.0258 22.9056 10.0378C20.5753 10.1243 18.3648 11.0926 16.7211 12.7467C15.6423 13.8466 14.857 15.1999 14.4373 16.6823C14.0175 18.1648 13.9768 19.7289 14.3189 21.2311C13.0013 22.0558 11.9142 23.2008 11.159 24.5594C10.4037 25.9179 10.005 27.4457 10 29C10.0007 30.5587 10.3973 32.0916 11.1528 33.455C11.9082 34.8184 12.9977 35.9675 14.3189 36.7944C13.9801 38.2988 14.0248 39.8642 14.4491 41.3468C14.8733 42.8293 15.6634 44.1815 16.7467 45.2789C17.8493 46.3791 19.2132 47.1814 20.7106 47.6105C22.208 48.0396 23.7898 48.0815 25.3078 47.7322C26.1315 49.0294 27.2671 50.0996 28.6107 50.8451C29.9544 51.5906 31.4634 51.9876 33 52C34.5496 52.0005 36.0742 51.6095 37.4323 50.8634C38.7904 50.1173 39.9381 49.0403 40.7689 47.7322C42.2818 48.0712 43.8559 48.0223 45.3448 47.5902C46.8338 47.158 48.1894 46.3565 49.2857 45.2602C50.3821 44.1639 51.1835 42.8083 51.6157 41.3193C52.0479 39.8303 52.0968 38.2563 51.7578 36.7433C53.0575 35.9119 54.1272 34.7669 54.8685 33.4138C55.6098 32.0607 55.9989 30.5429 56 29C56.0005 27.4504 55.6095 25.9258 54.8634 24.5677C54.1173 23.2096 53.0403 22.0619 51.7322 21.2311C52.0712 19.7182 52.0223 18.1441 51.5902 16.6552C51.158 15.1662 50.3565 13.8106 49.2602 12.7143C48.1639 11.6179 46.8083 10.8165 45.3193 10.3843C43.8303 9.95211 42.2562 9.90325 40.7433 10.2422C39.9119 8.94254 38.7669 7.87283 37.4138 7.13152C36.0607 6.39021 34.5429 6.0011 33 6.00001Z" fill="#8C36F9"/>
<g id="Vector_2">
<path d="M40.6656 23.8892L30.4434 34.1114L40.6656 23.8892Z" fill="#8C36F9"/>
<path d="M40.6656 23.8892L30.4434 34.1114" stroke="white" stroke-width="2" stroke-linecap="round" stroke-linejoin="round"/>
</g>
<g id="Vector_3">
<path d="M25.334 29L30.4451 34.1111L25.334 29Z" fill="#8C36F9"/>
<path d="M25.334 29L30.4451 34.1111" stroke="white" stroke-width="2" stroke-linecap="round" stroke-linejoin="round"/>
</g>
</g>
<defs>
<filter id="filter0_d_101_656" x="0" y="0" width="66" height="66" filterUnits="userSpaceOnUse" color-interpolation-filters="sRGB">
<feFlood flood-opacity="0" result="BackgroundImageFix"/>
<feColorMatrix in="SourceAlpha" type="matrix" values="0 0 0 0 0 0 0 0 0 0 0 0 0 0 0 0 0 0 127 0" result="hardAlpha"/>
<feOffset dy="4"/>
<feGaussianBlur stdDeviation="5"/>
<feComposite in2="hardAlpha" operator="out"/>
<feColorMatrix type="matrix" values="0 0 0 0 0 0 0 0 0 0 0 0 0 0 0 0 0 0 0.25 0"/>
<feBlend mode="normal" in2="BackgroundImageFix" result="effect1_dropShadow_101_656"/>
<feBlend mode="normal" in="SourceGraphic" in2="effect1_dropShadow_101_656" result="shape"/>
</filter>
</defs>
</svg>
